<?xml version="1.0" encoding="utf-8"?>
<!-- Generator: Adobe Illustrator 22.1.0, SVG Export Plug-In . SVG Version: 6.00 Build 0)  -->
<svg version="1.1" id="Layer_1" xmlns="http://www.w3.org/2000/svg" xmlns:xlink="http://www.w3.org/1999/xlink" x="0px" y="0px"
	 viewBox="0 0 117.6 135.5" style="enable-background:new 0 0 117.6 135.5;" xml:space="preserve">
<style type="text/css">
	.st0{fill:#E98024;}
</style>
<g id="Group_6" transform="translate(0 0)">
	<g id="Path_21">
		<path class="st0" d="M58.6,0.5c-0.1,0-0.3,0.1-0.4,0.1L1.4,24.6c-0.6,0.2-0.9,0.8-0.9,1.4c0,48.8,23.6,90.4,57.6,108.9
			c0.4,0.2,1,0.2,1.4,0c34-18.5,57.6-60.1,57.6-108.9c0-0.6-0.4-1.1-0.9-1.4L59.3,0.6C59.1,0.5,58.9,0.5,58.6,0.5L58.6,0.5z
			 M58.8,3.6L114,26.8c-0.3,47-23,87-55.2,104.9C26.5,113.8,3.8,73.9,3.5,26.8L58.8,3.6z M58.6,25.9c-0.8,0.1-1.3,0.8-1.3,1.5v6
			c-4.8,0.3-8.5,1.9-11,4.5c-2.6,2.8-4.1,6.6-4,10.4c0,5.9,4.2,10.3,8.1,13.3c2.4,1.8,5,3.3,7.8,4.5c2.5,1.1,4.9,2.5,7.1,4.2
			c3.6,2.7,6.9,6.5,6.9,10.9c0.1,3.1-1,6.1-3.1,8.3c-2.1,2.2-5.4,3.6-10.3,3.6c-11,0-15-11-15-11c-0.3-0.8-1.1-1.2-1.9-0.9
			c-0.8,0.3-1.2,1.1-0.9,1.9c0,0,0,0.1,0,0.1c0,0,4.5,11.9,16.3,12.9v6c0,0.8,0.6,1.5,1.5,1.5c0.8,0,1.5-0.6,1.5-1.5
			c0,0,0-0.1,0-0.1v-6c4.8-0.3,8.5-1.9,11-4.5c2.6-2.8,4.1-6.6,4-10.4c0-5.9-4.2-10.4-8.1-13.3c-2.4-1.8-5-3.3-7.8-4.5
			c-2.5-1.1-4.9-2.5-7.1-4.2c-3.6-2.7-6.9-6.4-6.9-10.9c-0.1-3.1,1-6.1,3.1-8.4c2.1-2.2,5.4-3.6,10.3-3.6c11,0,15,11,15,11
			c0.3,0.8,1.2,1.1,2,0.8c0.7-0.3,1.1-1.1,0.8-1.9c0,0-4.5-11.8-16.3-12.8v-6.1c0-0.8-0.6-1.5-1.4-1.6
			C58.8,25.8,58.7,25.9,58.6,25.9z"/>
		<path class="st0" d="M58.8,135.5c-0.3,0-0.6-0.1-0.9-0.2C22.7,116.2,0,73.2,0,25.9c0-0.8,0.5-1.5,1.2-1.8L58,0.2
			C58.2,0.1,58.4,0,58.6,0l0.1,0c0.3,0,0.6,0.1,0.9,0.2l56.8,23.9c0.7,0.3,1.2,1,1.2,1.8c0,47.3-22.7,90.3-57.8,109.4
			C59.4,135.4,59.1,135.5,58.8,135.5z M58.7,1c-0.1,0-0.2,0-0.2,0.1L1.6,25C1.3,25.2,1,25.5,1,25.9c0,47,22.5,89.5,57.3,108.5
			c0.3,0.2,0.6,0.2,0.9,0c34.8-18.9,57.3-61.5,57.3-108.5c0-0.4-0.3-0.7-0.6-0.9L59.2,1.1C59,1,58.9,1,58.7,1z M58.8,132.3l-0.2-0.1
			C25.1,113.6,3.3,72.2,3,26.8l0-0.3L58.8,3l55.8,23.5l0,0.3c-0.3,45.4-22.1,86.7-55.5,105.3L58.8,132.3z M4,27.2
			c0.4,44.8,21.8,85.5,54.7,104c32.9-18.4,54.4-59.2,54.7-104l-54.7-23L4,27.2z M58.8,104.2C58.8,104.2,58.7,104.2,58.8,104.2
			c-1.2,0-2-0.9-2-2v-5.6c-11.7-1.2-16.3-13-16.3-13.2c-0.4-1.1,0.1-2.3,1.2-2.6c1-0.4,2.2,0.2,2.6,1.2c0,0.1,4.1,10.7,14.6,10.7
			c4.3,0,7.7-1.2,10-3.5c2-2.2,3.1-5,3-8c0-4.6-3.6-8.3-6.7-10.5c-2.2-1.6-4.5-3-7-4.1c-2.8-1.2-5.5-2.8-7.9-4.6
			c-5.5-4.1-8.3-8.7-8.3-13.7c-0.1-4,1.4-7.8,4.1-10.8c2.6-2.7,6.3-4.2,10.8-4.6v-5.6c0-1,0.7-1.9,1.7-2h0c0.1,0,0.2,0,0.3,0
			c1.1,0,2,1,1.9,2.1V33C72.4,34.2,77,46,77.1,46.1c0.4,1-0.1,2.1-1.1,2.5c-1,0.4-2.2-0.1-2.6-1.1c0-0.1-4.1-10.7-14.6-10.7
			c-4.4,0-7.7,1.2-10,3.4c-2,2.2-3.1,5-3,8c0,4.5,3.6,8.2,6.7,10.5c2.2,1.6,4.5,3,7,4.1c2.8,1.2,5.5,2.8,7.9,4.6
			c5.5,4.1,8.3,8.8,8.3,13.7c0.1,4-1.4,7.8-4.1,10.8c-2.6,2.7-6.3,4.2-10.8,4.6v5.6C60.8,103.3,59.9,104.2,58.8,104.2z M42.3,81.6
			c-0.1,0-0.2,0-0.3,0.1c-0.5,0.2-0.8,0.8-0.6,1.3c0.1,0.2,4.6,11.7,15.9,12.6l0.5,0v6.5c0,0.6,0.4,1,1,1c0.5,0,1-0.4,1-1v-6.6
			l0.5,0c4.5-0.3,8.1-1.8,10.6-4.3c2.6-2.7,3.9-6.3,3.8-10.1c0-4.6-2.7-9-7.9-12.9c-2.4-1.8-5-3.3-7.7-4.5c-2.6-1.1-5-2.5-7.2-4.2
			c-3.2-2.4-7.1-6.4-7.1-11.3c-0.1-3.2,1.1-6.3,3.3-8.7c2.4-2.5,6-3.8,10.7-3.8C70,35.9,74.2,47,74.3,47.2c0.2,0.5,0.8,0.7,1.3,0.5
			c0.5-0.2,0.7-0.8,0.6-1.3c0-0.1-4.6-11.5-15.9-12.5l-0.5,0v-6.5c0-0.6-0.4-1-1-1.1c-0.1,0-0.1,0-0.2,0c-0.5,0.1-0.9,0.5-0.9,1
			l0,6.5l-0.5,0c-4.5,0.3-8.1,1.8-10.6,4.3c-2.6,2.7-3.9,6.3-3.8,10.1c0,4.6,2.7,8.9,7.9,12.9c2.4,1.8,5,3.3,7.7,4.5
			c2.6,1.1,5,2.5,7.2,4.2c3.2,2.4,7.1,6.4,7.1,11.3c0.1,3.2-1.1,6.3-3.3,8.7c-2.5,2.5-6.1,3.8-10.7,3.8c-11.2,0-15.5-11.2-15.5-11.3
			C43.1,81.9,42.7,81.6,42.3,81.6z"/>
	</g>
</g>
</svg>
