<svg version="1.1" id="svg" xmlns="http://www.w3.org/2000/svg" x="0" y="0" viewBox="0 0 1460.5 431.5" xml:space="preserve"><style>.orange{fill:#e98024}.bluef{fill:#2a3052}</style><path id="wallet" d="M358 99l-23.7-35.7-102.6 74.6m165.6 0l-26.2-45.7-75.9 45.7m134.7 99.5V133.6c0-4.7-4.1-9.4-8.8-9.4h-29.2M407 308.5h14c4.7 0 8.8-4.7 8.8-9.4v-66.7M247.7 124.2H216c-18.2 0-23.7.2-23.6 22.8v153.2c0 4.7 4.7 8.6 9.4 8.6h205.4c4.7 0 9.4-3.8 9.4-8.5v-40.1l-19.6-.3c-16.7 0-30.2-13.5-30.2-30.2s13.5-30.2 30.2-30.2c0 0 0 0 0 0h18.8l.9-51.7c0-4.7-4.7-8.6-9.4-8.6h-211m189.3 90.6c0-6.2 5.1-11.3 11.3-11.3 6.2 0 11.3 5.1 11.3 11.3 0 6.2-5.1 11.3-11.3 11.3h0c-6.2 0-11.3-5.1-11.3-11.3v-.1.1z" fill="none" stroke="#2a3052" stroke-width="5" stroke-linecap="round" stroke-miterlimit="10"/><path class="bluef" d="M1068.3 210.1h10.3c11.3 0 20.2-2.8 26.7-8.4 6.5-5.6 9.7-12.6 9.7-20.8 0-9.1-2.8-16.6-8.4-22.5-5.6-5.9-13.8-8.8-24.7-8.8-10 0-18.3 2.9-25 8.8-6.6 5.9-9.9 13.7-9.9 23.5h-4.3l-.2-.6c-.3-10.9 3.4-19.8 11-26.6 7.6-6.8 17.1-10.2 28.3-10.2 11.6 0 20.9 3.3 27.8 9.9 6.9 6.6 10.3 15.5 10.3 26.8 0 7.1-2.2 13.5-6.7 19.1-4.5 5.6-10.5 9.7-18.1 12.2 8.8 2.2 15.6 6.1 20.5 11.8 4.9 5.7 7.3 12.9 7.3 21.5 0 11.8-3.7 21-11.2 27.7-7.5 6.7-17.2 10.1-29 10.1-11.4 0-21.6-3.4-30.3-10.2-8.8-6.8-13-16.4-12.7-28.8l.2-.6h4.3c0 10 3.7 18.3 11 24.8s16.5 9.7 27.6 9.7c11.1 0 19.8-2.9 26-8.6 6.2-5.7 9.3-13.7 9.3-23.8 0-10.5-3.5-18.3-10.6-23.3s-16.7-7.6-28.8-7.6h-10.3v-5.1z"/><path class="bluef" d="M1068.3 210.1h10.3c11.3 0 20.2-2.8 26.7-8.4 6.5-5.6 9.7-12.6 9.7-20.8 0-9.1-2.8-16.6-8.4-22.5-5.6-5.9-13.8-8.8-24.7-8.8-10 0-18.3 2.9-25 8.8-6.6 5.9-9.9 13.7-9.9 23.5h-4.3l-.2-.6c-.3-10.9 3.4-19.8 11-26.6 7.6-6.8 17.1-10.2 28.3-10.2 11.6 0 20.9 3.3 27.8 9.9 6.9 6.6 10.3 15.5 10.3 26.8 0 7.1-2.2 13.5-6.7 19.1-4.5 5.6-10.5 9.7-18.1 12.2 8.8 2.2 15.6 6.1 20.5 11.8 4.9 5.7 7.3 12.9 7.3 21.5 0 11.8-3.7 21-11.2 27.7-7.5 6.7-17.2 10.1-29 10.1-11.4 0-21.6-3.4-30.3-10.2-8.8-6.8-13-16.4-12.7-28.8l.2-.6h4.3c0 10 3.7 18.3 11 24.8s16.5 9.7 27.6 9.7c11.1 0 19.8-2.9 26-8.6 6.2-5.7 9.3-13.7 9.3-23.8 0-10.5-3.5-18.3-10.6-23.3s-16.7-7.6-28.8-7.6h-10.3v-5.1z"/><path class="orange" d="M1145.8 166.3c0-9 2.7-16.7 8.2-22.9 5.4-6.3 12.5-9.4 21.1-9.4 8.5 0 15.5 3.1 20.9 9.4 5.4 6.3 8.2 13.9 8.2 22.9v8.3c0 9-2.7 16.6-8.1 22.8-5.4 6.2-12.3 9.3-20.8 9.3-8.7 0-15.8-3.1-21.3-9.3-5.4-6.2-8.2-13.8-8.2-22.8v-8.3zm6 8.2c0 7.2 2 13.3 6.1 18.5 4 5.2 9.9 7.7 17.5 7.7 7.3 0 13-2.6 17-7.7 4-5.2 6-11.3 6-18.5v-8.3c0-7.2-2-13.4-6.1-18.6-4-5.2-9.8-7.8-17.1-7.8-7.4 0-13.1 2.6-17.2 7.9s-6.1 11.4-6.1 18.5v8.3zm31.4 104l-4.8-3.3 76.4-122.2 4.8 3.3-76.4 122.2zm43.9-24.3c0-9 2.7-16.6 8.1-22.8 5.4-6.3 12.4-9.4 21-9.4s15.6 3.1 21.1 9.3c5.4 6.2 8.2 13.9 8.2 22.9v8.4c0 9-2.7 16.7-8.1 22.9-5.4 6.2-12.4 9.3-20.9 9.3-8.7 0-15.7-3.1-21.2-9.3-5.4-6.2-8.2-13.9-8.2-22.9v-8.4zm5.9 8.4c0 7.2 2 13.4 6 18.6 4 5.2 9.8 7.7 17.4 7.7 7.4 0 13.1-2.6 17.1-7.7 4-5.2 6-11.3 6-18.6v-8.4c0-7.6-2-13.9-6-18.9-4-5-9.8-7.5-17.3-7.5-7.4 0-13.1 2.5-17.1 7.5-4 5-6.1 11.3-6.1 18.8v8.5z"/><path class="orange" d="M1145.8 166.3c0-9 2.7-16.7 8.2-22.9 5.4-6.3 12.5-9.4 21.1-9.4 8.5 0 15.5 3.1 20.9 9.4 5.4 6.3 8.2 13.9 8.2 22.9v8.3c0 9-2.7 16.6-8.1 22.8-5.4 6.2-12.3 9.3-20.8 9.3-8.7 0-15.8-3.1-21.3-9.3-5.4-6.2-8.2-13.8-8.2-22.8v-8.3zm6 8.2c0 7.2 2 13.3 6.1 18.5 4 5.2 9.9 7.7 17.5 7.7 7.3 0 13-2.6 17-7.7 4-5.2 6-11.3 6-18.5v-8.3c0-7.2-2-13.4-6.1-18.6-4-5.2-9.8-7.8-17.1-7.8-7.4 0-13.1 2.6-17.2 7.9s-6.1 11.4-6.1 18.5v8.3zm31.4 104l-4.8-3.3 76.4-122.2 4.8 3.3-76.4 122.2zm43.9-24.3c0-9 2.7-16.6 8.1-22.8 5.4-6.3 12.4-9.4 21-9.4s15.6 3.1 21.1 9.3c5.4 6.2 8.2 13.9 8.2 22.9v8.4c0 9-2.7 16.7-8.1 22.9-5.4 6.2-12.4 9.3-20.9 9.3-8.7 0-15.7-3.1-21.2-9.3-5.4-6.2-8.2-13.9-8.2-22.9v-8.4zm5.9 8.4c0 7.2 2 13.4 6 18.6 4 5.2 9.8 7.7 17.4 7.7 7.4 0 13.1-2.6 17.1-7.7 4-5.2 6-11.3 6-18.6v-8.4c0-7.6-2-13.9-6-18.9-4-5-9.8-7.5-17.3-7.5-7.4 0-13.1 2.5-17.1 7.5-4 5-6.1 11.3-6.1 18.8v8.5z"/><g id="plus"><path d="M731.6 212h28.1v3.1h-28.1v29.5h-3.3v-29.5h-27V212h27v-29.6h3.3V212z" fill="#2a3052"/><path class="bluef" d="M732.6 245.6h-5.3v-29.5h-27V211h27v-29.6h5.3V211h28.1v5.1h-28.1v29.5zm-3.3-2h1.3v-29.5h28.1V213h-28.1v-29.6h-1.3V213h-27v1.1h27v29.5z"/></g><g id="arrows"><path id="Path_35" d="M748.5 178.1c.4.9 1.3 1.5 2.3 1.5h58.9c1.3-.1 2.4-1.2 2.4-2.5v-58.9c0-1.3-1.1-2.4-2.4-2.4-.6 0-1.3.3-1.7.7l-18.9 18.9c-16.9-12.8-37.4-19.7-58.6-19.6-54 0-97.7 43.7-97.7 97.7 0 6.9.7 13.7 2.2 20.4.2 1.1 1.2 1.9 2.3 1.9h22.5c1.3 0 2.4-1.1 2.4-2.4 0-.2 0-.5-.1-.7-10.6-37.7 11.4-77 49.1-87.6 20-5.6 41.5-2.2 58.8 9.4l-20.9 20.9c-.7.7-1 1.8-.6 2.7zm27-22.2c1-.9 1-2.4.1-3.4l-.1-.1-.3-.2c-33.9-24.7-81.3-17.3-106 16.6-13 17.9-17.6 40.5-12.6 62.1h-17.3c-9.7-50.2 23.1-98.8 73.3-108.5 5.9-1.1 11.9-1.7 17.9-1.7 20.8-.1 41 6.9 57.3 19.8.9.8 2.4.7 3.2-.2l16.2-16.2v50.6h-50.5l18.8-18.8z" fill="#e98024"/><path id="Path_36" class="orange" d="M823.2 189.4h-22.5c-1.3 0-2.4 1.1-2.4 2.4 0 .2 0 .5.1.7 11.6 37.4-9.3 77.2-46.7 88.9-20.5 6.4-42.8 3.1-60.7-8.9l20.9-20.9c.9-1 .9-2.6-.1-3.5-.4-.4-1-.6-1.6-.7h-58.9c-1.3.1-2.4 1.2-2.4 2.5v58.9c0 1.3 1.1 2.4 2.4 2.4.6 0 1.3-.3 1.7-.7l18.9-18.9c16.9 12.8 37.4 19.7 58.6 19.6 53.8.1 97.6-43.4 97.7-97.3 0-7.6-.9-15.2-2.6-22.6-.2-1.1-1.2-1.9-2.4-1.9zm-92.7 116.9c-20.8.1-41-6.9-57.3-19.8-.9-.8-2.3-.7-3.2.1l-16.2 16.3v-50.6h50.5l-18.8 18.8c-.9 1-.9 2.5 0 3.5l.3.2c33.8 24.7 81.2 17.4 105.9-16.3 9.6-13 14.7-28.8 14.7-45 0-6.5-.8-12.9-2.5-19.2h17.4c10.6 50.1-21.4 99.3-71.5 110-6.3 1.3-12.8 2-19.3 2z"/></g></svg>