<?xml version="1.0" encoding="utf-8"?>
<!-- Generator: Adobe Illustrator 22.1.0, SVG Export Plug-In . SVG Version: 6.00 Build 0)  -->
<svg version="1.1" xmlns="http://www.w3.org/2000/svg" xmlns:xlink="http://www.w3.org/1999/xlink" x="0px" y="0px"
	 viewBox="0 0 1366 768" style="enable-background:new 0 0 1366 768;" xml:space="preserve">
<style type="text/css">
	.st0{fill:#DEDEDE;stroke:#000000;stroke-width:3;stroke-miterlimit:10;}
	.st1{fill:#FFFCFA;stroke:#000000;stroke-width:3;stroke-miterlimit:10;}
	.st2{fill:#F27833;}
	.st3{font-family:'Roboto-Bold';}
	.st4{font-size:53.2687px;}
	.st5{fill:#FFFFFF;}
	.st6{font-size:30.4393px;}
	.st7{fill:#F2F2F2;stroke:#2A3052;stroke-width:3;stroke-linecap:round;stroke-miterlimit:10;}
	.st8{fill:#2E8836;stroke:#2A3052;stroke-width:3;stroke-miterlimit:10;}
	.st9{fill:#F2F2F2;stroke:#2A3052;stroke-width:3;stroke-miterlimit:10;}
	.st10{fill:#EA9F6C;stroke:#2A3052;stroke-width:3;stroke-miterlimit:10;}
	.st11{fill:#CE7C3E;stroke:#2A3052;stroke-width:3;stroke-miterlimit:10;}
	.st12{fill:#FFFFFF;stroke:#2A3052;stroke-width:3;stroke-miterlimit:10;}
	.st13{fill:#2A3052;}
	.st14{fill:none;stroke:#2A3052;stroke-width:3;stroke-miterlimit:10;}
	.st15{fill:none;stroke:#2A3052;stroke-width:3;stroke-linecap:round;stroke-miterlimit:10;}
	.st16{fill:#2A3052;stroke:#2A3052;stroke-width:3;stroke-miterlimit:10;}
	.st17{fill:#DEDEDE;stroke:#2A3052;stroke-width:3;stroke-miterlimit:10;}
</style>

<g id="Monitor_1_">
	<g id="Monitor">
		<path class="st0" d="M942.7,539H439.3c-8.1,0-14.6-6.6-14.6-14.6V180.2c0-8.1,6.6-14.6,14.6-14.6h503.4c8.1,0,14.6,6.6,14.6,14.6
			v344.2C957.3,532.4,950.7,539,942.7,539z"/>
		<rect x="426.1" y="201.4" class="st1" width="529.8" height="286.5"/>
		<circle class="st1" cx="691" cy="514.7" r="11.2"/>
		<polygon class="st0" points="730.5,580.1 651.5,580.1 668.7,539.3 713.3,539.3 		"/>
		<path class="st0" d="M773.6,589.4H608.4c-0.7,0-1.3-0.6-1.3-1.3v-8.5c0-0.7,0.6-1.3,1.3-1.3h165.1c0.7,0,1.3,0.6,1.3,1.3v8.5
			C774.9,588.8,774.3,589.4,773.6,589.4z"/>
	</g>
</g>
<g id="explore">
	<text transform="matrix(1 0 0 1 564.4443 362.8159)"><tspan x="0" y="0" class="st2 st3 st4">EXPLORE</tspan><tspan x="0" y="34.2" class="st5 st3 st6">CryptoCurrencies</tspan></text>
</g>
<g id="table">
	<g>
		<rect x="2" y="591.5" class="st7" width="1362" height="50"/>
		
			<rect x="23.7" y="688.7" transform="matrix(8.442749e-10 -1 1 8.442749e-10 -618.6662 791.6658)" class="st7" width="125.7" height="33"/>
		
			<rect x="1215.7" y="687.8" transform="matrix(8.442749e-10 -1 1 8.442749e-10 574.1661 1982.8336)" class="st7" width="125.7" height="33"/>
	</g>
</g>
<g id="cactus">
	<g>
		<g>
			<g transform="translate(0 -1)">
				<g>
					<g>
						<path class="st8" d="M1127.7,530.7v-15.2c0-1.4,1.1-2.5,2.5-2.5h2.5c13.4,0,25-9.6,27.4-22.8l0.4-25.4
							c-0.1-5.3-4.1-9.6-9.3-10.1c-2.8-0.2-5.6,0.8-7.7,2.7c-2.1,1.9-3.2,4.6-3.2,7.4v17.8c0,5.6-4.5,10.2-10.2,10.2h-2.5v-7.6
							v-35.5c0-9.6-7.7-17.5-17.3-17.8c-4.7-0.1-9.2,1.7-12.6,5.1c-3.4,3.4-5.4,7.9-5.6,12.7l0,35.5v5.1h-2.5
							c-5.6,0-10.2-4.5-10.2-10.2v-17.8c0-2.8-1.2-5.5-3.2-7.4c-2.1-1.9-4.8-2.9-7.6-2.7c-5.2,0.5-9.3,4.9-9.4,10.1l0.4,25.4
							c2.5,13.2,14,22.8,27.4,22.8h2.5c1.4,0,2.5,1.1,2.5,2.5v17.8H1127.7z"/>
					</g>
				</g>
			</g>
			<line class="st8" x1="1051.6" y1="463.2" x2="1058.1" y2="463.2"/>
			<line class="st8" x1="1161.5" y1="475" x2="1168" y2="475"/>
			<line class="st8" x1="1160.6" y1="489.4" x2="1167.1" y2="489.4"/>
			<line class="st8" x1="1127.4" y1="456.7" x2="1133.9" y2="456.7"/>
			<line class="st8" x1="1085.2" y1="446.2" x2="1091.7" y2="446.2"/>
			<line class="st8" x1="1085.1" y1="463.2" x2="1091.6" y2="463.2"/>
			<line class="st8" x1="1123.4" y1="436.4" x2="1129.9" y2="436.4"/>
			<line class="st8" x1="1051.6" y1="483.2" x2="1058.1" y2="483.2"/>
		</g>
		<g>
			<line class="st9" x1="1091" y1="529.7" x2="1126.5" y2="529.7"/>
			<line class="st9" x1="1076.4" y1="554.7" x2="1141.1" y2="554.7"/>
			<path class="st10" d="M1139.6,557.1h-60.4c-3.4,0-6.2-2.8-6.2-6.2V536c0-3.4,2.8-6.2,6.2-6.2h60.4c3.4,0,6.2,2.8,6.2,6.2v14.9
				C1145.8,554.3,1143,557.1,1139.6,557.1z"/>
			<path class="st11" d="M1129.3,590.6h-39.1c-1.4,0-2.6-0.9-2.8-2.1l-5.7-28.4c-0.3-1.6,1-3,2.8-3h50.5c1.8,0,3.1,1.5,2.8,3
				l-5.7,28.4C1131.8,589.7,1130.6,590.6,1129.3,590.6z"/>
		</g>
	</g>
</g>
<g id="calander">
	<g>
		<path class="st12" d="M1266.5,277.3h-138c-12.7,0-23-10.4-23-23V146.2c0-12.7,10.4-23,23-23h138c12.7,0,23,10.4,23,23v108.1
			C1289.5,267,1279.1,277.3,1266.5,277.3z"/>
		<path class="st13" d="M1106.1,164.9v-19.5c0-11.4,10.4-20.8,23-20.8h138c12.7,0,23,9.3,23,20.8v20.8"/>
		<line class="st14" x1="1107.5" y1="166.3" x2="1287.5" y2="166.3"/>
		<g>
			<line class="st15" x1="1157" y1="122.7" x2="1157" y2="101.8"/>
			<line class="st15" x1="1238" y1="122.7" x2="1238" y2="101.8"/>
		</g>
	</g>
</g>
<g id="clock">
	<circle class="st12" cx="167.3" cy="205.4" r="105.5"/>
</g>
<g id="headphone">
	<g>
		<path class="st14" d="M94.6,485.3c0-1.3,0-42.2,0.1-43.5c2-38.4,33.8-69.3,72.6-69.3c38.8,0,70.5,30.9,72.6,69.2
			c0.1,1.3,0.1,42.3,0.1,43.6"/>
		<path class="st16" d="M205,449.2c19.3,0,35,15.7,35,35c0,19.3-15.7,35-35,35V449.2z"/>
		<path class="st16" d="M129.6,449.2c-19.3,0-35,15.7-35,35c0,19.3,15.7,35,35,35V449.2z"/>
		<line class="st15" x1="170.5" y1="355.5" x2="170.5" y2="387.5"/>
	</g>
</g>
<g id="books">
	<g>
		<path class="st9" d="M1306.6,591.1h19c2.8,0,5-2.2,5-5V477.2c0-2.8-2.2-5-5-5h-19c-2.8,0-5,2.2-5,5v108.8
			C1301.6,588.8,1303.8,591.1,1306.6,591.1z"/>
		<path class="st16" d="M1336.8,590.2h21.9c2.8,0,5-2.2,5-5V456.8c0-2.8-2.2-5-5-5h-21.9c-2.8,0-5,2.2-5,5v128.4
			C1331.8,587.9,1334,590.2,1336.8,590.2z"/>
		<path class="st17" d="M1198.5,576.4l17.8,12.7c2.2,1.6,5.4,1.1,7-1.2l74.5-104.6c1.6-2.2,1.1-5.4-1.2-7l-17.8-12.7
			c-2.2-1.6-5.4-1.1-7,1.2l-74.5,104.6C1195.7,571.7,1196.3,574.8,1198.5,576.4z"/>
	</g>
</g>
</svg>
