<svg xmlns="http://www.w3.org/2000/svg" viewBox="0 0 1366 768"><style>.st0,.st1{fill:#dedede;stroke:#000;stroke-width:3;stroke-miterlimit:10}.st1{fill:#fffcfa}.st3{font-family:&apos;Roboto-Bold&apos;}.st12,.st7,.st8,.st9{stroke:#2a3052;stroke-width:3;stroke-miterlimit:10}.st7{stroke-linecap:round;fill:#f2f2f2}.st12,.st8,.st9{fill:#2e8836}.st12,.st9{fill:#f2f2f2}.st12{fill:#fff}.st14{fill:none}.st14,.st15,.st16{stroke:#2a3052;stroke-width:3;stroke-miterlimit:10}.st15{stroke-linecap:round;fill:none}.st16{fill:#2a3052}</style><g id="Monitor_1_"><g id="Monitor"><path class="st0" d="M942.7 539H439.3c-8.1 0-14.6-6.6-14.6-14.6V180.2c0-8.1 6.6-14.6 14.6-14.6h503.4c8.1 0 14.6 6.6 14.6 14.6v344.2c0 8-6.6 14.6-14.6 14.6z"/><path class="st1" d="M426.1 201.4h529.8v286.5H426.1z"/><circle class="st1" cx="691" cy="514.7" r="11.2"/><path class="st0" d="M730.5 580.1h-79l17.2-40.8h44.6z"/><path class="st0" d="M773.6 589.4H608.4c-.7 0-1.3-.6-1.3-1.3v-8.5c0-.7.6-1.3 1.3-1.3h165.1c.7 0 1.3.6 1.3 1.3v8.5c.1.7-.5 1.3-1.2 1.3z"/></g></g><text transform="translate(564.444 362.816)" id="explore"><tspan x="0" y="0" class="st3" font-size="53.269" fill="#f27833">EXPLORE</tspan><tspan x="0" y="34.2" class="st3" font-size="30.439" fill="#fff">CryptoCurrencies</tspan></text><g id="table"><path class="st7" d="M2 591.5h1362v50H2z"/><path transform="rotate(-90 86.5 705.166)" class="st7" d="M23.7 688.7h125.7v33H23.7z"/><path transform="rotate(-90 1278.5 704.334)" class="st7" d="M1215.7 687.8h125.7v33h-125.7z"/></g><g id="cactus"><path class="st8" d="M1127.7 530.7v-15.2c0-1.4 1.1-2.5 2.5-2.5h2.5c13.4 0 25-9.6 27.4-22.8l.4-25.4c-.1-5.3-4.1-9.6-9.3-10.1-2.8-.2-5.6.8-7.7 2.7-2.1 1.9-3.2 4.6-3.2 7.4v17.8c0 5.6-4.5 10.2-10.2 10.2h-2.5v-43.1c0-9.6-7.7-17.5-17.3-17.8-4.7-.1-9.2 1.7-12.6 5.1-3.4 3.4-5.4 7.9-5.6 12.7v40.6h-2.5c-5.6 0-10.2-4.5-10.2-10.2v-17.8c0-2.8-1.2-5.5-3.2-7.4-2.1-1.9-4.8-2.9-7.6-2.7-5.2.5-9.3 4.9-9.4 10.1l.4 25.4c2.5 13.2 14 22.8 27.4 22.8h2.5c1.4 0 2.5 1.1 2.5 2.5v17.8h35.7z" transform="translate(0 -1)"/><path class="st8" d="M1051.6 463.2h6.5M1161.5 475h6.5M1160.6 489.4h6.5M1127.4 456.7h6.5M1085.2 446.2h6.5M1085.1 463.2h6.5M1123.4 436.4h6.5M1051.6 483.2h6.5"/><g><path class="st9" d="M1091 529.7h35.5M1076.4 554.7h64.7"/><path d="M1139.6 557.1h-60.4c-3.4 0-6.2-2.8-6.2-6.2V536c0-3.4 2.8-6.2 6.2-6.2h60.4c3.4 0 6.2 2.8 6.2 6.2v14.9c0 3.4-2.8 6.2-6.2 6.2z" fill="#ea9f6c" stroke="#2a3052" stroke-width="3" stroke-miterlimit="10"/><path d="M1129.3 590.6h-39.1c-1.4 0-2.6-.9-2.8-2.1l-5.7-28.4c-.3-1.6 1-3 2.8-3h50.5c1.8 0 3.1 1.5 2.8 3l-5.7 28.4c-.3 1.2-1.5 2.1-2.8 2.1z" fill="#ce7c3e" stroke="#2a3052" stroke-width="3" stroke-miterlimit="10"/></g></g><g id="calander"><path class="st12" d="M1266.5 277.3h-138c-12.7 0-23-10.4-23-23V146.2c0-12.7 10.4-23 23-23h138c12.7 0 23 10.4 23 23v108.1c0 12.7-10.4 23-23 23z"/><path d="M1106.1 164.9v-19.5c0-11.4 10.4-20.8 23-20.8h138c12.7 0 23 9.3 23 20.8v20.8" fill="#2a3052"/><path class="st14" d="M1107.5 166.3h180"/><path class="st15" d="M1157 122.7v-20.9M1238 122.7v-20.9"/></g><circle class="st12" cx="167.3" cy="205.4" r="105.5" id="clock"/><g id="headphone"><path class="st14" d="M94.6 485.3c0-1.3 0-42.2.1-43.5 2-38.4 33.8-69.3 72.6-69.3s70.5 30.9 72.6 69.2c.1 1.3.1 42.3.1 43.6"/><path class="st16" d="M205 449.2c19.3 0 35 15.7 35 35s-15.7 35-35 35v-70zM129.6 449.2c-19.3 0-35 15.7-35 35s15.7 35 35 35v-70z"/><path class="st15" d="M170.5 355.5v32"/></g><g id="books"><path class="st9" d="M1306.6 591.1h19c2.8 0 5-2.2 5-5V477.2c0-2.8-2.2-5-5-5h-19c-2.8 0-5 2.2-5 5V586c0 2.8 2.2 5.1 5 5.1z"/><path class="st16" d="M1336.8 590.2h21.9c2.8 0 5-2.2 5-5V456.8c0-2.8-2.2-5-5-5h-21.9c-2.8 0-5 2.2-5 5v128.4c0 2.7 2.2 5 5 5z"/><path d="M1198.5 576.4l17.8 12.7c2.2 1.6 5.4 1.1 7-1.2l74.5-104.6c1.6-2.2 1.1-5.4-1.2-7l-17.8-12.7c-2.2-1.6-5.4-1.1-7 1.2l-74.5 104.6c-1.6 2.3-1 5.4 1.2 7z" fill="#dedede" stroke="#2a3052" stroke-width="3" stroke-miterlimit="10"/></g></svg>