<svg xmlns="http://www.w3.org/2000/svg" xmlns:xlink="http://www.w3.org/1999/xlink" viewBox="0 0 412.52 385.51"><defs><style>.cls-4{fill:#b9752a}.cls-5{fill:#b9762a}.cls-6{fill:#ba772a}.cls-7{fill:#ba782b}.cls-9{fill:#bb792b}.cls-10{fill:#bc7a2c}.cls-11{fill:#bc7b2c}.cls-13{fill:#bd7c2d}.cls-15{fill:#be7e2e}.cls-17{fill:#bf7f2f}.cls-18{fill:#c0802f}.cls-19{fill:#c08130}.cls-21{fill:#c18231}.cls-22{fill:#c18331}.cls-23{fill:#c28432}.cls-24{fill:#c38533}.cls-27{fill:#c58835}.cls-29{fill:#c68a37}.cls-30{fill:#c78b37}.cls-31{fill:#c78c38}.cls-33{fill:#c88d39}.cls-36{fill:#ca903b}.cls-38{fill:#cb913c}.cls-39{fill:#cb923d}.cls-40{fill:#cc933d}.cls-41{fill:#cc943e}.cls-44{fill:#ce9640}.cls-45{fill:#ce9740}.cls-46{fill:#cf9841}.cls-47{fill:#cf9942}.cls-48{fill:#d09a43}.cls-51{fill:#d29c45}.cls-54{fill:#d39f47}.cls-55{fill:#d4a048}.cls-59{fill:#d6a34b}.cls-61{fill:#d7a54c}.cls-62{fill:#d8a64d}.cls-63{fill:#d8a74e}.cls-66{fill:#daaa50}.cls-67{fill:#dbab51}.cls-71{fill:#ddae54}.cls-72{fill:#deaf55}.cls-77{fill:#e1b459}.cls-82{fill:#e4b95d}.cls-105{fill:#f3d070}.cls-124{fill:#f6d684}.cls-161{fill:#fbe1a5}.cls-164{fill:#fbe2a8}.cls-167{fill:#fce3ab}.cls-169{fill:#fce4ad}.cls-172{fill:#fde5af}.cls-174{fill:#fde5b1}.cls-175{fill:#fde6b2}.cls-177{fill:#fee6b4}.cls-178{fill:#fee7b5}.cls-179{fill:#fee7b6}.cls-180{fill:#fee7b7}.cls-182{fill:#ffe8b8}.cls-183{fill:#ffe8b9}.cls-185{fill:#fee7b4}.cls-186{fill:#fee6b3}.cls-188{fill:#fee6b1}.cls-196{fill:#fde4aa}.cls-200{fill:#fde3a6}.cls-203{fill:#fce2a3}.cls-207{fill:#fce19f}.cls-212{fill:#fbe09a}.cls-218{fill:#fbde94}.cls-224{fill:#fadd8e}.cls-231{fill:#fadb87}.cls-247{fill:#f8d777}.cls-318{fill:#bb7c56}</style><clipPath id="clip-path"><circle cx="211.33" cy="189.96" r="127.69" fill="none"/></clipPath><linearGradient id="linear-gradient" x1="138.29" y1="263" x2="284.37" y2="116.92" gradientUnits="userSpaceOnUse"><stop offset="0" stop-color="#b9752a"/><stop offset=".15" stop-color="#daa852"/><stop offset=".27" stop-color="#f0ca6d"/><stop offset=".33" stop-color="#f8d777"/><stop offset=".38" stop-color="#fadc8b"/><stop offset=".47" stop-color="#fee5ac"/><stop offset=".52" stop-color="#ffe8b9"/><stop offset=".57" stop-color="#fde5b0"/><stop offset=".65" stop-color="#f9dc96"/><stop offset=".75" stop-color="#f3d070"/><stop offset=".97" stop-color="#c18234"/><stop offset="1" stop-color="#b9752a"/></linearGradient><linearGradient id="linear-gradient-2" x1="120.39" y1="280.9" x2="302.27" y2="99.02" xlink:href="#linear-gradient"/></defs><g style="isolation:isolate"><g id="Layer_1" data-name="Layer 1"><g clip-path="url(#clip-path)"><path class="cls-4" d="M158.44 62.27l-74.8 74.8v-74.8h74.8zM159.32 62.27l-75.68 75.68v-.88l74.8-74.8h.88z"/><path class="cls-5" d="M160.2 62.27l-76.56 76.56v-.88l75.68-75.68h.88z"/><path class="cls-6" d="M161.08 62.27l-77.44 77.44v-.88l76.56-76.56h.88z"/><path class="cls-7" d="M161.96 62.27l-78.32 78.32v-.88l77.44-77.44h.88z"/><path fill="#bb782b" d="M162.84 62.27l-79.2 79.2v-.88l78.32-78.32h.88z"/><path class="cls-9" d="M163.73 62.27l-80.09 80.08v-.88l79.2-79.2h.89z"/><path class="cls-10" d="M164.61 62.27l-80.97 80.96v-.88l80.09-80.08h.88z"/><path class="cls-11" d="M165.49 62.27l-81.85 81.84v-.88l80.97-80.96h.88z"/><path fill="#bd7b2c" d="M166.37 62.27l-82.73 82.72v-.88l81.85-81.84h.88z"/><path class="cls-13" d="M167.25 62.27l-83.61 83.61v-.89l82.73-82.72h.88z"/><path fill="#be7d2d" d="M168.13 62.27l-84.49 84.49v-.88l83.61-83.61h.88z"/><path class="cls-15" d="M169.01 62.27l-85.37 85.37v-.88l84.49-84.49h.88z"/><path fill="#bf7e2e" d="M169.89 62.27l-86.25 86.25v-.88l85.37-85.37h.88z"/><path class="cls-17" d="M170.77 62.27L83.64 149.4v-.88l86.25-86.25h.88z"/><path class="cls-18" d="M171.65 62.27l-88.01 88.01v-.88l87.13-87.13h.88z"/><path class="cls-19" d="M172.53 62.27l-88.89 88.89v-.88l88.01-88.01h.88z"/><path fill="#c18130" d="M173.41 62.27l-89.77 89.77v-.88l88.89-88.89h.88z"/><path class="cls-21" d="M174.3 62.27l-90.66 90.65v-.88l89.77-89.77h.89z"/><path class="cls-22" d="M175.18 62.27L83.64 153.8v-.88l90.66-90.65h.88z"/><path class="cls-23" d="M176.06 62.27l-92.42 92.41v-.88l91.54-91.53h.88z"/><path class="cls-23" d="M176.94 62.27l-93.3 93.29v-.88l92.42-92.41h.88z"/><path class="cls-24" d="M177.82 62.27l-94.18 94.18v-.89l93.3-93.29h.88z"/><path fill="#c38634" d="M178.7 62.27l-95.06 95.06v-.88l94.18-94.18h.88z"/><path fill="#c48734" d="M179.58 62.27l-95.94 95.94v-.88l95.06-95.06h.88z"/><path class="cls-27" d="M180.46 62.27l-96.82 96.82v-.88l95.94-95.94h.88z"/><path class="cls-27" d="M181.34 62.27l-97.7 97.7v-.88l96.82-96.82h.88z"/><path fill="#c68936" d="M182.22 62.27l-98.58 98.58v-.88l97.7-97.7h.88z"/><path class="cls-29" d="M183.1 62.27l-99.46 99.46v-.88l98.58-98.58h.88z"/><path class="cls-30" d="M183.99 62.27L83.64 162.61v-.88l99.46-99.46h.89z"/><path class="cls-31" d="M184.87 62.27L83.64 163.49v-.88L183.99 62.27h.88z"/><path fill="#c88c38" d="M185.75 62.27L83.64 164.37v-.88L184.87 62.27h.88z"/><path class="cls-33" d="M186.63 62.27L83.64 165.25v-.88l102.11-102.1h.88z"/><path fill="#c98e39" d="M187.51 62.27L83.64 166.13v-.88L186.63 62.27h.88z"/><path fill="#c98f3a" d="M188.39 62.27L83.64 167.02v-.89L187.51 62.27h.88z"/><path class="cls-36" d="M189.27 62.27L83.64 167.9v-.88L188.39 62.27h.88z"/><path fill="#ca913b" d="M190.15 62.27L83.64 168.78v-.88L189.27 62.27h.88z"/><path class="cls-38" d="M191.03 62.27L83.64 169.66v-.88L190.15 62.27h.88z"/><path class="cls-39" d="M191.91 62.27L83.64 170.54v-.88L191.03 62.27h.88z"/><path class="cls-40" d="M192.79 62.27L83.64 171.42v-.88L191.91 62.27h.88z"/><path class="cls-41" d="M193.68 62.27L83.64 172.3v-.88L192.79 62.27h.89z"/><path fill="#cd953e" d="M194.56 62.27L83.64 173.18v-.88L193.68 62.27h.88z"/><path fill="#cd963f" d="M195.44 62.27L83.64 174.06v-.88L194.56 62.27h.88z"/><path class="cls-44" d="M196.32 62.27L83.64 174.94v-.88l111.8-111.79h.88z"/><path class="cls-45" d="M197.2 62.27L83.64 175.82v-.88L196.32 62.27h.88z"/><path class="cls-46" d="M198.08 62.27L83.64 176.71v-.89L197.2 62.27h.88z"/><path class="cls-47" d="M198.96 62.27L83.64 177.59v-.88L198.08 62.27h.88z"/><path class="cls-48" d="M199.84 62.27l-116.2 116.2v-.88L198.96 62.27h.88z"/><path fill="#d09b43" d="M200.72 62.27L83.64 179.35v-.88l116.2-116.2h.88z"/><path fill="#d19c44" d="M201.6 62.27L83.64 180.23v-.88L200.72 62.27h.88z"/><path class="cls-51" d="M202.48 62.27L83.64 181.11v-.88L201.6 62.27h.88z"/><path fill="#d29d45" d="M203.36 62.27L83.64 181.99v-.88L202.48 62.27h.88z"/><path fill="#d39e46" d="M204.25 62.27L83.64 182.87v-.88L203.36 62.27h.89z"/><path class="cls-54" d="M205.13 62.27L83.64 183.75v-.88l120.61-120.6h.88z"/><path class="cls-55" d="M206.01 62.27L83.64 184.63v-.88L205.13 62.27h.88z"/><path fill="#d4a148" d="M206.89 62.27L83.64 185.51v-.88L206.01 62.27h.88z"/><path fill="#d5a249" d="M207.77 62.27L83.64 186.4v-.89L206.89 62.27h.88z"/><path fill="#d5a34a" d="M208.65 62.27L83.64 187.28v-.88L207.77 62.27h.88z"/><path class="cls-59" d="M209.53 62.27L83.64 188.16v-.88L208.65 62.27h.88z"/><path fill="#d7a44b" d="M210.41 62.27L83.64 189.04v-.88L209.53 62.27h.88z"/><path class="cls-61" d="M211.29 62.27L83.64 189.92v-.88L210.41 62.27h.88z"/><path class="cls-62" d="M212.17 62.27L83.64 190.8v-.88L211.29 62.27h.88z"/><path class="cls-63" d="M213.05 62.27L83.64 191.68v-.88L212.17 62.27h.88z"/><path fill="#d9a84e" d="M213.94 62.27L83.64 192.56v-.88L213.05 62.27h.89z"/><path fill="#d9a94f" d="M214.82 62.27L83.64 193.44v-.88l130.3-130.29h.88z"/><path class="cls-66" d="M215.7 62.27L83.64 194.32v-.88L214.82 62.27h.88z"/><path class="cls-67" d="M216.58 62.27L83.64 195.2v-.88L215.7 62.27h.88z"/><path fill="#dbac51" d="M217.46 62.27L83.64 196.08v-.88L216.58 62.27h.88z"/><path fill="#dcad52" d="M218.34 62.27l-134.7 134.7v-.89L217.46 62.27h.88z"/><path fill="#dcad53" d="M219.22 62.27L83.64 197.85v-.88l134.7-134.7h.88z"/><path class="cls-71" d="M220.1 62.27L83.64 198.73v-.88L219.22 62.27h.88z"/><path class="cls-72" d="M220.98 62.27L83.64 199.61v-.88L220.1 62.27h.88z"/><path fill="#deb055" d="M221.86 62.27L83.64 200.49v-.88L220.98 62.27h.88z"/><path fill="#dfb156" d="M222.74 62.27l-139.1 139.1v-.88L221.86 62.27h.88z"/><path fill="#dfb257" d="M223.62 62.27L83.64 202.25v-.88l139.1-139.1h.88z"/><path fill="#e0b358" d="M224.5 62.27L83.64 203.13v-.88L223.62 62.27h.88z"/><path class="cls-77" d="M225.39 62.27L83.64 204.01v-.88L224.5 62.27h.89z"/><path fill="#e1b559" d="M226.27 62.27L83.64 204.89v-.88L225.39 62.27h.88z"/><path fill="#e2b65a" d="M227.15 62.27L83.64 205.77v-.88L226.27 62.27h.88z"/><path fill="#e2b75b" d="M228.03 62.27L83.64 206.66v-.89l143.51-143.5h.88z"/><path fill="#e3b85c" d="M228.91 62.27L83.64 207.54v-.88L228.03 62.27h.88z"/><path class="cls-82" d="M229.79 62.27L83.64 208.42v-.88L228.91 62.27h.88z"/><path fill="#e4ba5e" d="M230.67 62.27L83.64 209.3v-.88L229.79 62.27h.88z"/><path fill="#e5bb5e" d="M231.55 62.27L83.64 210.18v-.88L230.67 62.27h.88z"/><path fill="#e6bc5f" d="M232.43 62.27L83.64 211.06v-.88L231.55 62.27h.88z"/><path fill="#e6bd60" d="M233.31 62.27L83.64 211.94v-.88L232.43 62.27h.88z"/><path fill="#e7be61" d="M234.19 62.27L83.64 212.82v-.88L233.31 62.27h.88z"/><path fill="#e7bf62" d="M235.07 62.27L83.64 213.7v-.88L234.19 62.27h.88z"/><path fill="#e8c063" d="M235.96 62.27L83.64 214.58v-.88L235.07 62.27h.89z"/><path fill="#e9c164" d="M236.84 62.27L83.64 215.46v-.88L235.96 62.27h.88z"/><path fill="#e9c264" d="M237.72 62.27L83.64 216.34v-.88l153.2-153.19h.88z"/><path fill="#eac365" d="M238.6 62.27L83.64 217.22v-.88L237.72 62.27h.88z"/><path fill="#ebc466" d="M239.48 62.27L83.64 218.11v-.89L238.6 62.27h.88z"/><path fill="#ebc567" d="M240.36 62.27L83.64 218.99v-.88L239.48 62.27h.88z"/><path fill="#ecc668" d="M241.24 62.27l-157.6 157.6v-.88L240.36 62.27h.88z"/><path fill="#edc769" d="M242.12 62.27L83.64 220.75v-.88l157.6-157.6h.88z"/><path fill="#eec869" d="M243 62.27L83.64 221.63v-.88L242.12 62.27h.88z"/><path fill="#eec96a" d="M243.88 62.27L83.64 222.51v-.88L243 62.27h.88z"/><path fill="#efca6b" d="M244.76 62.27L83.64 223.39v-.88L243.88 62.27h.88z"/><path fill="#f0cb6c" d="M245.65 62.27l-162.01 162v-.88L244.76 62.27h.89z"/><path fill="#f0cc6d" d="M246.53 62.27L83.64 225.15v-.88l162.01-162h.88z"/><path fill="#f1cd6e" d="M247.41 62.27L83.64 226.03v-.88L246.53 62.27h.88z"/><path fill="#f2ce6e" d="M248.29 62.27L83.64 226.91v-.88L247.41 62.27h.88z"/><path fill="#f3cf6f" d="M249.17 62.27L83.64 227.8v-.89L248.29 62.27h.88z"/><path class="cls-105" d="M250.05 62.27L83.64 228.68v-.88L249.17 62.27h.88z"/><path class="cls-105" d="M250.96 62.27L83.64 229.58v-.9L250.05 62.27h.91z"/><path fill="#f3d071" d="M251.87 62.27L83.64 230.49v-.91L250.96 62.27h.91z"/><path fill="#f4d072" d="M252.77 62.27L83.64 231.4v-.91L251.87 62.27h.9z"/><path fill="#f4d173" d="M253.68 62.27L83.64 232.31v-.91L252.77 62.27h.91z"/><path fill="#f4d174" d="M254.59 62.27L83.64 233.21v-.9L253.68 62.27h.91z"/><path fill="#f4d176" d="M255.5 62.27L83.64 234.12v-.91L254.59 62.27h.91z"/><path fill="#f4d277" d="M256.4 62.27L83.64 235.03v-.91L255.5 62.27h.9z"/><path fill="#f4d278" d="M257.31 62.27L83.64 235.94v-.91L256.4 62.27h.91z"/><path fill="#f4d279" d="M258.22 62.27L83.64 236.84v-.9L257.31 62.27h.91z"/><path fill="#f4d37a" d="M259.13 62.27L83.64 237.75v-.91L258.22 62.27h.91z"/><path fill="#f5d37b" d="M260.03 62.27L83.64 238.66v-.91L259.13 62.27h.9z"/><path fill="#f5d37c" d="M260.94 62.27l-177.3 177.3v-.91L260.03 62.27h.91z"/><path fill="#f5d47d" d="M261.85 62.27L83.64 240.47v-.9l177.3-177.3h.91z"/><path fill="#f5d47e" d="M262.76 62.27L83.64 241.38v-.91l178.21-178.2h.91z"/><path fill="#f5d47f" d="M263.66 62.27L83.64 242.29v-.91L262.76 62.27h.9z"/><path fill="#f5d580" d="M264.57 62.27L83.64 243.2v-.91L263.66 62.27h.91z"/><path fill="#f5d581" d="M265.48 62.27L83.64 244.1v-.9L264.57 62.27h.91z"/><path fill="#f6d582" d="M266.39 62.27L83.64 245.01v-.91L265.48 62.27h.91z"/><path fill="#f6d583" d="M267.29 62.27L83.64 245.92v-.91L266.39 62.27h.9z"/><path class="cls-124" d="M268.2 62.27L83.64 246.83v-.91L267.29 62.27h.91z"/><path class="cls-124" d="M269.11 62.27L83.64 247.74v-.91L268.2 62.27h.91z"/><path fill="#f6d685" d="M270.02 62.27L83.64 248.64v-.9L269.11 62.27h.91z"/><path fill="#f6d786" d="M270.92 62.27L83.64 249.55v-.91L270.02 62.27h.9z"/><path fill="#f6d787" d="M271.83 62.27L83.64 250.46v-.91L270.92 62.27h.91z"/><path fill="#f7d788" d="M272.74 62.27l-189.1 189.1v-.91L271.83 62.27h.91z"/><path fill="#f7d889" d="M273.65 62.27l-190.01 190v-.9l189.1-189.1h.91z"/><path fill="#f7d88a" d="M274.55 62.27L83.64 253.18v-.91l190.01-190h.9z"/><path fill="#f7d88b" d="M275.46 62.27L83.64 254.09v-.91L274.55 62.27h.91z"/><path fill="#f7d98c" d="M276.37 62.27L83.64 255v-.91L275.46 62.27h.91z"/><path fill="#f7d98d" d="M277.28 62.27L83.64 255.9v-.9L276.37 62.27h.91z"/><path fill="#f7d98e" d="M278.18 62.27L83.64 256.81v-.91L277.28 62.27h.9z"/><path fill="#f7d98f" d="M279.09 62.27L83.64 257.72v-.91L278.18 62.27h.91z"/><path fill="#f8da8f" d="M280 62.27L83.64 258.63v-.91L279.09 62.27h.91z"/><path fill="#f8da90" d="M280.91 62.27L83.64 259.53v-.9L280 62.27h.91z"/><path fill="#f8da91" d="M281.81 62.27L83.64 260.44v-.91L280.91 62.27h.9z"/><path fill="#f8db92" d="M282.72 62.27L83.64 261.35v-.91L281.81 62.27h.91z"/><path fill="#f8db93" d="M283.63 62.27L83.64 262.26v-.91L282.72 62.27h.91z"/><path fill="#f8db94" d="M284.54 62.27L83.64 263.16v-.9L283.63 62.27h.91z"/><path fill="#f8db95" d="M284.68 62.27l.38.38L84.03 263.69l-.39-.39v-.14l200.9-200.89h.14z"/><path transform="rotate(-45 184.77 163.395)" fill="#f8dc96" d="M42.62 163.08h284.31v.64H42.62z"/><path transform="rotate(-45 185.219 163.85)" fill="#f9dc96" d="M43.07 163.53h284.31v.64H43.07z"/><path transform="rotate(-45 185.68 164.31)" fill="#f9dc97" d="M43.53 163.98h284.31v.64H43.53z"/><path transform="rotate(-45 186.132 164.751)" fill="#f9dd98" d="M43.98 164.44h284.31v.64H43.98z"/><path transform="rotate(-45 186.593 165.21)" fill="#f9dd99" d="M44.43 164.89h284.31v.64H44.43z"/><path transform="rotate(-45 187.04 165.665)" fill="#f9dd9a" d="M44.89 165.35H329.2v.64H44.89z"/><path transform="rotate(-45 187.489 166.12)" fill="#f9dd9b" d="M45.34 165.8h284.31v.64H45.34z"/><path transform="rotate(-45 187.95 166.579)" fill="#f9de9c" d="M45.79 166.25H330.1v.64H45.79z"/><path transform="rotate(-45 188.402 167.021)" fill="#fade9c" d="M46.25 166.71h284.31v.64H46.25z"/><path transform="rotate(-45 188.85 167.476)" fill="#fade9d" d="M46.7 167.16h284.31v.64H46.7z"/><path transform="rotate(-45 189.31 167.935)" fill="#fadf9e" d="M47.16 167.61h284.31v.64H47.16z"/><path transform="rotate(-45 189.76 168.39)" fill="#fadf9f" d="M47.61 168.07h284.31v.64H47.61z"/><path transform="rotate(-45 190.22 168.849)" fill="#fadfa0" d="M48.06 168.52h284.31v.64H48.06z"/><path transform="rotate(-45 190.673 169.29)" fill="#fadfa1" d="M48.52 168.98h284.31v.64H48.52z"/><path transform="rotate(-45 191.12 169.745)" fill="#fae0a1" d="M48.97 169.43h284.31v.64H48.97z"/><path transform="rotate(-45 191.581 170.205)" fill="#fae0a2" d="M49.42 169.88h284.31v.64H49.42z"/><path transform="rotate(-45 192.03 170.659)" fill="#fbe0a3" d="M49.88 170.34h284.31v.64H49.88z"/><path transform="rotate(-45 192.477 171.113)" fill="#fbe1a4" d="M50.33 170.79h284.31v.64H50.33z"/><path class="cls-161" transform="rotate(-45 192.943 171.56)" d="M50.79 171.24H335.1v.64H50.79z"/><path class="cls-161" transform="rotate(-45 193.39 172.015)" d="M51.24 171.7h284.31v.64H51.24z"/><path transform="rotate(-45 193.851 172.474)" fill="#fbe1a6" d="M51.69 172.15H336v.64H51.69z"/><path transform="rotate(-45 194.3 172.929)" fill="#fbe2a7" d="M52.15 172.61h284.31v.64H52.15z"/><path class="cls-164" transform="rotate(-45 194.748 173.383)" d="M52.6 173.06h284.31v.64H52.6z"/><path class="cls-164" transform="rotate(-45 195.213 173.83)" d="M53.05 173.51h284.31v.64H53.05z"/><path transform="rotate(-45 195.661 174.285)" fill="#fce2a9" d="M53.51 173.97h284.31v.64H53.51z"/><path transform="rotate(-45 196.121 174.744)" fill="#fce3aa" d="M53.96 174.42h284.31v.64H53.96z"/><path class="cls-167" transform="rotate(-45 196.57 175.198)" d="M54.42 174.87h284.31v.64H54.42z"/><path class="cls-167" transform="rotate(-45 197.018 175.653)" d="M54.87 175.33h284.31v.64H54.87z"/><path transform="rotate(-45 197.483 176.1)" fill="#fce3ac" d="M55.32 175.78h284.31v.64H55.32z"/><path class="cls-169" transform="rotate(-45 197.931 176.554)" d="M55.78 176.24h284.31v.64H55.78z"/><path class="cls-169" transform="rotate(-45 198.38 177.009)" d="M56.23 176.69h284.31v.64H56.23z"/><path transform="rotate(-45 198.84 177.468)" fill="#fce4ae" d="M56.68 177.14h284.31v.64H56.68z"/><path transform="rotate(-45 199.288 177.922)" fill="#fde4af" d="M57.14 177.6h284.31v.64H57.14z"/><path class="cls-172" transform="rotate(-45 199.741 178.365)" d="M57.59 178.05H341.9v.64H57.59z"/><path transform="rotate(-45 200.201 178.824)" fill="#fde5b0" d="M58.05 178.5h284.31v.64H58.05z"/><path class="cls-174" transform="rotate(-45 200.65 179.278)" d="M58.5 178.96h284.31v.64H58.5z"/><path class="cls-174" transform="rotate(-45 201.11 179.738)" d="M58.95 179.41h284.31v.64H58.95z"/><path class="cls-175" transform="rotate(-45 201.558 180.192)" d="M59.41 179.87h284.31v.64H59.41z"/><path class="cls-175" transform="rotate(-45 202.011 180.634)" d="M59.86 180.32h284.31v.64H59.86z"/><path transform="rotate(-45 202.471 181.094)" fill="#fde6b3" d="M60.31 180.77h284.31v.64H60.31z"/><path class="cls-177" transform="rotate(-45 202.92 181.548)" d="M60.77 181.23h284.31v.64H60.77z"/><path class="cls-177" transform="rotate(-45 203.38 182.007)" d="M61.22 181.68h284.31v.64H61.22z"/><path class="cls-178" transform="rotate(-45 203.828 182.462)" d="M61.68 182.13h284.31v.64H61.68z"/><path class="cls-178" transform="rotate(-45 204.281 182.904)" d="M62.13 182.59h284.31v.64H62.13z"/><path class="cls-179" transform="rotate(-45 204.742 183.363)" d="M62.58 183.04h284.31v.64H62.58z"/><path class="cls-179" transform="rotate(-45 205.19 183.818)" d="M63.04 183.5h284.31v.64H63.04z"/><path class="cls-180" transform="rotate(-45 205.638 184.272)" d="M63.49 183.95H347.8v.64H63.49z"/><path class="cls-180" transform="rotate(-45 206.098 184.731)" d="M63.95 184.4h284.31v.64H63.95z"/><path transform="rotate(-45 206.551 185.174)" fill="#fee8b7" d="M64.4 184.86h284.31v.64H64.4z"/><path class="cls-182" transform="rotate(-45 207.012 185.633)" d="M64.85 185.31h284.31v.64H64.85z"/><path class="cls-182" transform="rotate(-45 207.46 186.087)" d="M65.31 185.76h284.31v.64H65.31z"/><path class="cls-182" transform="rotate(-45 207.908 186.542)" d="M65.76 186.22h284.31v.64H65.76z"/><path class="cls-183" transform="rotate(-45 208.373 186.989)" d="M66.21 186.67h284.31v.64H66.21z"/><path class="cls-183" transform="rotate(-45 208.79 187.416)" d="M66.64 187.14h284.31v.55H66.64z"/><path class="cls-182" transform="rotate(-45 209.181 187.804)" d="M67.03 187.53h284.31v.55H67.03z"/><path class="cls-182" transform="rotate(-45 209.572 188.192)" d="M67.42 187.92h284.31v.55H67.42z"/><path class="cls-182" transform="rotate(-45 209.958 188.593)" d="M67.81 188.31h284.31v.55H67.81z"/><path transform="rotate(-45 210.348 188.98)" fill="#ffe8b7" d="M68.2 188.7h284.31v.55H68.2z"/><path class="cls-180" transform="rotate(-45 210.74 189.369)" d="M68.59 189.09H352.9v.55H68.59z"/><path class="cls-179" transform="rotate(-45 211.13 189.757)" d="M68.98 189.48h284.31v.55H68.98z"/><path class="cls-179" transform="rotate(-45 211.533 190.15)" d="M69.37 189.88h284.31v.55H69.37z"/><path class="cls-178" transform="rotate(-45 211.919 190.55)" d="M69.76 190.27h284.31v.55H69.76z"/><path class="cls-185" transform="rotate(-45 212.31 190.939)" d="M70.15 190.66h284.31v.55H70.15z"/><path class="cls-185" transform="rotate(-45 212.7 191.327)" d="M70.54 191.05h284.31v.55H70.54z"/><path class="cls-186" transform="rotate(-45 213.09 191.715)" d="M70.94 191.44h284.31v.55H70.94z"/><path class="cls-186" transform="rotate(-45 213.482 192.103)" d="M71.33 191.83h284.31v.55H71.33z"/><path transform="rotate(-45 213.872 192.491)" fill="#fee6b2" d="M71.72 192.22h284.31v.55H71.72z"/><path class="cls-188" transform="rotate(-45 214.258 192.891)" d="M72.11 192.61h284.31v.55H72.11z"/><path class="cls-188" transform="rotate(-45 214.649 193.28)" d="M72.5 193h284.31v.55H72.5z"/><path transform="rotate(-45 215.04 193.668)" fill="#fee6b0" d="M72.89 193.39H357.2v.55H72.89z"/><path transform="rotate(-45 215.43 194.056)" fill="#fee5af" d="M73.28 193.78h284.31v.55H73.28z"/><path class="cls-172" transform="rotate(-45 215.821 194.444)" d="M73.67 194.17h284.31v.55H73.67z"/><path transform="rotate(-45 216.22 194.85)" fill="#fde5ae" d="M74.06 194.57h284.31v.55H74.06z"/><path transform="rotate(-45 216.61 195.237)" fill="#fde5ad" d="M74.45 194.96h284.31v.55H74.45z"/><path transform="rotate(-45 217 195.625)" fill="#fde5ac" d="M74.84 195.35h284.31v.55H74.84z"/><path transform="rotate(-45 217.391 196.014)" fill="#fde4ac" d="M75.24 195.74h284.31v.55H75.24z"/><path transform="rotate(-45 217.782 196.402)" fill="#fde4ab" d="M75.63 196.13h284.31v.55H75.63z"/><path class="cls-196" transform="rotate(-45 218.168 196.802)" d="M76.02 196.52h284.31v.55H76.02z"/><path class="cls-196" transform="rotate(-45 218.559 197.19)" d="M76.41 196.91h284.31v.55H76.41z"/><path transform="rotate(-45 218.95 197.578)" fill="#fde4a9" d="M76.8 197.3h284.31v.55H76.8z"/><path transform="rotate(-45 219.34 197.966)" fill="#fde3a8" d="M77.19 197.69H361.5v.55H77.19z"/><path transform="rotate(-45 219.731 198.354)" fill="#fde3a7" d="M77.58 198.08h284.31v.55H77.58z"/><path class="cls-200" transform="rotate(-45 220.122 198.743)" d="M77.97 198.47h284.31v.55H77.97z"/><path class="cls-200" transform="rotate(-45 220.508 199.143)" d="M78.36 198.87h284.31v.55H78.36z"/><path transform="rotate(-45 220.91 199.536)" fill="#fce3a5" d="M78.75 199.26h284.31v.55H78.75z"/><path transform="rotate(-45 221.301 199.924)" fill="#fce2a4" d="M79.14 199.65h284.31v.55H79.14z"/><path class="cls-203" transform="rotate(-45 221.692 200.312)" d="M79.53 200.04h284.31v.55H79.53z"/><path class="cls-203" transform="rotate(-45 222.083 200.7)" d="M79.93 200.43h284.31v.55H79.93z"/><path transform="rotate(-45 222.469 201.1)" fill="#fce2a2" d="M80.32 200.82h284.31v.55H80.32z"/><path transform="rotate(-45 222.86 201.489)" fill="#fce2a1" d="M80.71 201.21h284.31v.55H80.71z"/><path transform="rotate(-45 223.25 201.877)" fill="#fce1a0" d="M81.1 201.6h284.31v.55H81.1z"/><path class="cls-207" transform="rotate(-45 223.64 202.265)" d="M81.49 201.99H365.8v.55H81.49z"/><path class="cls-207" transform="rotate(-45 224.032 202.653)" d="M81.88 202.38h284.31v.55H81.88z"/><path transform="rotate(-45 224.417 203.053)" fill="#fce19e" d="M82.27 202.77h284.31v.55H82.27z"/><path transform="rotate(-45 224.808 203.441)" fill="#fce19d" d="M82.66 203.16h284.31v.55H82.66z"/><path transform="rotate(-45 225.211 203.835)" fill="#fce09c" d="M83.05 203.56h284.31v.55H83.05z"/><path transform="rotate(-45 225.602 204.223)" fill="#fce09b" d="M83.44 203.95h284.31v.55H83.44z"/><path class="cls-212" transform="rotate(-45 225.993 204.61)" d="M83.83 204.34h284.31v.55H83.83z"/><path class="cls-212" transform="rotate(-45 226.378 205.011)" d="M84.22 204.73h284.31v.55H84.22z"/><path transform="rotate(-45 226.77 205.4)" fill="#fbdf99" d="M84.62 205.12h284.31v.55H84.62z"/><path transform="rotate(-45 227.16 205.787)" fill="#fbdf98" d="M85.01 205.51h284.31v.55H85.01z"/><path transform="rotate(-45 227.55 206.175)" fill="#fbdf97" d="M85.4 205.9h284.31v.55H85.4z"/><path transform="rotate(-45 227.941 206.564)" fill="#fbdf96" d="M85.79 206.29H370.1v.55H85.79z"/><path transform="rotate(-45 228.332 206.952)" fill="#fbdf95" d="M86.18 206.68h284.31v.55H86.18z"/><path class="cls-218" transform="rotate(-45 228.718 207.352)" d="M86.57 207.07h284.31v.55H86.57z"/><path class="cls-218" transform="rotate(-45 229.109 207.74)" d="M86.96 207.46h284.31v.55H86.96z"/><path transform="rotate(-45 229.5 208.128)" fill="#fbde93" d="M87.35 207.85h284.31v.55H87.35z"/><path transform="rotate(-45 229.902 208.521)" fill="#fbde92" d="M87.74 208.25h284.31v.55H87.74z"/><path transform="rotate(-45 230.293 208.91)" fill="#fbdd91" d="M88.13 208.64h284.31v.55H88.13z"/><path transform="rotate(-45 230.679 209.31)" fill="#fadd90" d="M88.52 209.03h284.31v.55H88.52z"/><path transform="rotate(-45 231.07 209.698)" fill="#fadd8f" d="M88.92 209.42h284.31v.55H88.92z"/><path class="cls-224" transform="rotate(-45 231.46 210.086)" d="M89.31 209.81h284.31v.55H89.31z"/><path class="cls-224" transform="rotate(-45 231.851 210.474)" d="M89.7 210.2h284.31v.55H89.7z"/><path transform="rotate(-45 232.242 210.862)" fill="#fadc8d" d="M90.09 210.59H374.4v.55H90.09z"/><path transform="rotate(-45 232.628 211.262)" fill="#fadc8c" d="M90.48 210.98h284.31v.55H90.48z"/><path transform="rotate(-45 233.019 211.65)" fill="#fadc8b" d="M90.87 211.37h284.31v.55H90.87z"/><path transform="rotate(-45 233.41 212.039)" fill="#fadc8a" d="M91.26 211.76h284.31v.55H91.26z"/><path transform="rotate(-45 233.8 212.427)" fill="#fadc89" d="M91.65 212.15h284.31v.55H91.65z"/><path transform="rotate(-45 234.203 212.82)" fill="#fadb88" d="M92.04 212.55h284.31v.55H92.04z"/><path class="cls-231" transform="rotate(-45 234.589 213.22)" d="M92.43 212.94h284.31v.55H92.43z"/><path class="cls-231" transform="rotate(-45 234.98 213.608)" d="M92.82 213.33h284.31v.55H92.82z"/><path transform="rotate(-45 235.37 213.996)" fill="#fadb86" d="M93.21 213.72h284.31v.55H93.21z"/><path transform="rotate(-45 235.761 214.385)" fill="#f9da85" d="M93.61 214.11h284.31v.55H93.61z"/><path transform="rotate(-45 236.152 214.773)" fill="#f9da84" d="M94 214.5h284.31v.55H94z"/><path transform="rotate(-45 236.543 215.16)" fill="#f9da83" d="M94.39 214.89H378.7v.55H94.39z"/><path transform="rotate(-45 236.928 215.561)" fill="#f9da82" d="M94.78 215.28h284.31v.55H94.78z"/><path transform="rotate(-45 237.32 215.95)" fill="#f9da81" d="M95.17 215.67h284.31v.55H95.17z"/><path transform="rotate(-45 237.71 216.337)" fill="#f9d980" d="M95.56 216.06h284.31v.55H95.56z"/><path transform="rotate(-45 238.1 216.725)" fill="#f9d97f" d="M95.95 216.45h284.31v.55H95.95z"/><path fill="#f9d97e" d="M338.82 116.41l.2.2v.38L138.36 317.64h-.38l-.2-.2 201.04-201.03z"/><path fill="#f9d97d" d="M339.02 117.77L139.15 317.64h-.79l200.66-200.65v.78z"/><path fill="#f9d87c" d="M339.02 118.55L139.93 317.64h-.78l199.87-199.87v.78z"/><path fill="#f9d87b" d="M339.02 119.33L140.71 317.64h-.78l199.09-199.09v.78z"/><path fill="#f9d87a" d="M339.02 120.12L141.49 317.64h-.78l198.31-198.31v.79z"/><path fill="#f9d879" d="M339.02 120.9L142.27 317.64h-.78l197.53-197.52v.78z"/><path fill="#f8d778" d="M339.02 121.68L143.05 317.64h-.78L339.02 120.9v.78z"/><path class="cls-247" d="M339.02 122.46L143.84 317.64h-.79l195.97-195.96v.78z"/><path class="cls-247" d="M339.02 123.54l-194.11 194.1h-1.07l195.18-195.18v1.08z"/><path class="cls-247" d="M339.02 124.61L145.99 317.64h-1.08l194.11-194.1v1.07z"/><path fill="#f8d677" d="M339.02 125.69L147.06 317.64h-1.07l193.03-193.03v1.08z"/><path fill="#f7d676" d="M339.02 126.76L148.13 317.64h-1.07l191.96-191.95v1.07z"/><path fill="#f7d576" d="M339.02 127.84l-189.81 189.8h-1.08l190.89-190.88v1.08z"/><path fill="#f6d575" d="M339.02 128.91L150.28 317.64h-1.07l189.81-189.8v1.07z"/><path fill="#f6d475" d="M339.02 129.99L151.36 317.64h-1.08l188.74-188.73v1.08z"/><path fill="#f5d374" d="M339.02 131.06L152.43 317.64h-1.07l187.66-187.65v1.07z"/><path fill="#f5d273" d="M339.02 132.13L153.51 317.64h-1.08l186.59-186.58v1.07z"/><path fill="#f4d273" d="M339.02 133.21L154.58 317.64h-1.07l185.51-185.51v1.08z"/><path fill="#f4d172" d="M339.02 134.28L155.66 317.64h-1.08l184.44-184.43v1.07z"/><path fill="#f3d072" d="M339.02 135.36L156.73 317.64h-1.07l183.36-183.36v1.08z"/><path fill="#f3cf71" d="M339.02 136.44l-181.21 181.2h-1.08l182.29-182.28v1.08z"/><path fill="#f2cf70" d="M339.02 137.51L158.88 317.64h-1.07l181.21-181.2v1.07z"/><path fill="#f2ce70" d="M339.02 138.59L159.96 317.64h-1.08l180.14-180.13v1.08z"/><path fill="#f1cd6f" d="M339.02 139.66L161.03 317.64h-1.07l179.06-179.05v1.07z"/><path fill="#f0cc6e" d="M339.02 140.73L162.11 317.64h-1.08l177.99-177.98v1.07z"/><path fill="#f0cb6e" d="M339.02 141.81L163.18 317.64h-1.07l176.91-176.91v1.08z"/><path fill="#efca6d" d="M339.02 142.88L164.26 317.64h-1.08l175.84-175.83v1.07z"/><path fill="#efc96c" d="M339.02 143.96L165.33 317.64h-1.07l174.76-174.76v1.08z"/><path fill="#eec96b" d="M339.02 145.03L166.41 317.64h-1.08l173.69-173.68v1.07z"/><path fill="#eec86b" d="M339.02 146.11L167.48 317.64h-1.07l172.61-172.61v1.08z"/><path fill="#edc76a" d="M339.02 147.18L168.56 317.64h-1.08l171.54-171.53v1.07z"/><path fill="#ecc669" d="M339.02 148.26L169.63 317.64h-1.07l170.46-170.46v1.08z"/><path fill="#ecc568" d="M339.02 149.33L170.71 317.64h-1.08l169.39-169.38v1.07z"/><path fill="#ebc468" d="M339.02 150.41L171.78 317.64h-1.07l168.31-168.31v1.08z"/><path fill="#ebc367" d="M339.02 151.48L172.86 317.64h-1.08l167.24-167.23v1.07z"/><path fill="#eac266" d="M339.02 152.56L173.93 317.64h-1.07l166.16-166.16v1.08z"/><path fill="#e9c265" d="M339.02 153.63L175.01 317.64h-1.08l165.09-165.08v1.07z"/><path fill="#e9c165" d="M339.02 154.71L176.08 317.64h-1.07l164.01-164.01v1.08z"/><path fill="#e8c064" d="M339.02 155.78L177.16 317.64h-1.08l162.94-162.93v1.07z"/><path fill="#e8bf63" d="M339.02 156.86L178.23 317.64h-1.07l161.86-161.86v1.08z"/><path fill="#e7be62" d="M339.02 157.93L179.31 317.64h-1.08l160.79-160.78v1.07z"/><path fill="#e6bd62" d="M339.02 159.01L180.38 317.64h-1.07l159.71-159.71v1.08z"/><path fill="#e6bc61" d="M339.02 160.08L181.46 317.64h-1.08l158.64-158.63v1.07z"/><path fill="#e5bb60" d="M339.02 161.16L182.53 317.64h-1.07l157.56-157.56v1.08z"/><path fill="#e5ba5f" d="M339.02 162.23L183.6 317.64h-1.07l156.49-156.48v1.07z"/><path fill="#e4b95e" d="M339.02 163.31L184.68 317.64h-1.08l155.42-155.41v1.08z"/><path class="cls-82" d="M339.02 164.38L185.75 317.64h-1.07l154.34-154.33v1.07z"/><path fill="#e3b85d" d="M339.02 165.46L186.83 317.64h-1.08l153.27-153.26v1.08z"/><path fill="#e2b75c" d="M339.02 166.53L187.91 317.64h-1.08l152.19-152.18v1.07z"/><path fill="#e2b65b" d="M339.02 167.61L188.98 317.64h-1.07l151.11-151.11v1.08z"/><path fill="#e1b55a" d="M339.02 168.68L190.05 317.64h-1.07l150.04-150.03v1.07z"/><path class="cls-77" d="M339.02 169.76L191.13 317.64h-1.08l148.97-148.96v1.08z"/><path fill="#e0b359" d="M339.02 170.83L192.2 317.64h-1.07l147.89-147.88v1.07z"/><path fill="#dfb258" d="M339.02 171.91L193.28 317.64h-1.08l146.82-146.81v1.08z"/><path fill="#dfb157" d="M339.02 172.98L194.35 317.64h-1.07l145.74-145.73v1.07z"/><path fill="#deb056" d="M339.02 174.06L195.43 317.64h-1.08l144.67-144.66v1.08z"/><path class="cls-72" d="M339.02 175.13L196.5 317.64h-1.07l143.59-143.58v1.07z"/><path class="cls-71" d="M339.02 176.21L197.58 317.64h-1.08l142.52-142.51v1.08z"/><path fill="#dcad54" d="M339.02 177.28L198.65 317.64h-1.07l141.44-141.43v1.07z"/><path fill="#dcac53" d="M339.02 178.35L199.73 317.64h-1.08l140.37-140.36v1.07z"/><path fill="#dbab52" d="M339.02 179.43L200.8 317.64h-1.07l139.29-139.29v1.08z"/><path class="cls-67" d="M339.02 180.5L201.88 317.64h-1.08l138.22-138.21v1.07z"/><path class="cls-66" d="M339.02 181.58L202.95 317.64h-1.07L339.02 180.5v1.08z"/><path fill="#d9a950" d="M339.02 182.65L204.03 317.64h-1.08l136.07-136.06v1.07z"/><path fill="#d9a84f" d="M339.02 183.73L205.1 317.64h-1.07l134.99-134.99v1.08z"/><path class="cls-63" d="M339.02 184.8L206.18 317.64h-1.08l133.92-133.91v1.07z"/><path class="cls-62" d="M339.02 185.88L207.25 317.64h-1.07L339.02 184.8v1.08z"/><path class="cls-61" d="M339.02 186.95L208.33 317.64h-1.08l131.77-131.76v1.07z"/><path fill="#d6a44c" d="M339.02 188.03L209.4 317.64h-1.07l130.69-130.69v1.08z"/><path class="cls-59" d="M339.02 189.1L210.48 317.64h-1.08l129.62-129.61v1.07z"/><path fill="#d5a24a" d="M339.02 190.18L211.55 317.64h-1.07L339.02 189.1v1.08z"/><path fill="#d5a149" d="M339.02 191.25L212.63 317.64h-1.08l127.47-127.46v1.07z"/><path class="cls-55" d="M339.02 192.33L213.7 317.64h-1.07l126.39-126.39v1.08z"/><path class="cls-54" d="M339.02 193.4L214.78 317.64h-1.08l125.32-125.31v1.07z"/><path fill="#d39e47" d="M339.02 194.48L215.85 317.64h-1.07L339.02 193.4v1.08z"/><path fill="#d29d46" d="M339.02 195.55L216.93 317.64h-1.08l123.17-123.16v1.07z"/><path class="cls-51" d="M339.02 196.63L218 317.64h-1.07l122.09-122.09v1.08z"/><path fill="#d19b44" d="M339.02 197.7L219.08 317.64H218l121.02-121.01v1.07z"/><path fill="#d09a44" d="M339.02 198.78L220.15 317.64h-1.07L339.02 197.7v1.08z"/><path class="cls-48" d="M339.02 199.85l-117.8 117.79h-1.07l118.87-118.86v1.07z"/><path class="cls-47" d="M339.02 200.93L222.3 317.64h-1.08l117.8-117.79v1.08z"/><path class="cls-46" d="M339.02 202L223.38 317.64h-1.08l116.72-116.71V202z"/><path class="cls-45" d="M339.02 203.08L224.45 317.64h-1.07L339.02 202v1.08z"/><path class="cls-44" d="M339.02 204.15L225.53 317.64h-1.08l114.57-114.56v1.07z"/><path fill="#cd953f" d="M339.02 205.23L226.6 317.64h-1.07l113.49-113.49v1.08z"/><path class="cls-41" d="M339.02 206.3L227.67 317.64h-1.07l112.42-112.41v1.07z"/><path class="cls-40" d="M339.02 207.38L228.75 317.64h-1.08L339.02 206.3v1.08z"/><path class="cls-39" d="M339.02 208.45l-109.2 109.19h-1.07l110.27-110.26v1.07z"/><path class="cls-38" d="M339.02 209.53L230.9 317.64h-1.08l109.2-109.19v1.08z"/><path class="cls-36" d="M339.02 210.6L231.97 317.64h-1.07l108.12-108.11v1.07z"/><path fill="#c98f3b" d="M339.02 211.68L233.05 317.64h-1.08L339.02 210.6v1.08z"/><path fill="#c98e3a" d="M339.02 212.75l-104.9 104.89h-1.07l105.97-105.96v1.07z"/><path fill="#c88e39" d="M339.02 213.82L235.2 317.64h-1.08l104.9-104.89v1.07z"/><path class="cls-33" d="M339.02 214.9L236.27 317.64h-1.07l103.82-103.82v1.08z"/><path class="cls-31" d="M339.02 215.97L237.35 317.64h-1.08L339.02 214.9v1.07z"/><path class="cls-30" d="M339.02 217.05l-100.6 100.59h-1.07l101.67-101.67v1.08z"/><path class="cls-29" d="M339.02 218.12l-99.52 99.52h-1.08l100.6-100.59v1.07z"/><path fill="#c58936" d="M339.02 219.2l-98.45 98.44h-1.07l99.52-99.52v1.08z"/><path class="cls-27" d="M339.02 220.27l-97.37 97.37h-1.08l98.45-98.44v1.07z"/><path fill="#c48735" d="M339.02 221.35l-96.3 96.29h-1.07l97.37-97.37v1.08z"/><path fill="#c48634" d="M339.02 222.42l-95.22 95.22h-1.08l96.3-96.29v1.07z"/><path class="cls-24" d="M339.02 223.5l-94.15 94.14h-1.07l95.22-95.22v1.08z"/><path fill="#c28433" d="M339.02 224.57l-93.07 93.07h-1.08l94.15-94.14v1.07z"/><path fill="#c28332" d="M339.02 225.65l-92 91.99h-1.07l93.07-93.07v1.08z"/><path class="cls-22" d="M339.02 226.72l-90.92 90.92h-1.08l92-91.99v1.07z"/><path class="cls-21" d="M339.02 227.8l-89.85 89.84h-1.07l90.92-90.92v1.08z"/><path class="cls-19" d="M339.02 228.87l-88.77 88.77h-1.08l89.85-89.84v1.07z"/><path class="cls-18" d="M339.02 229.95l-87.7 87.69h-1.07l88.77-88.77v1.08z"/><path class="cls-17" d="M339.02 231.02l-86.62 86.62h-1.08l87.7-87.69v1.07z"/><path class="cls-15" d="M339.02 232.1l-85.55 85.54h-1.07l86.62-86.62v1.08z"/><path fill="#be7d2e" d="M339.02 233.17l-84.47 84.47h-1.08l85.55-85.54v1.07z"/><path class="cls-13" d="M339.02 234.25l-83.4 83.39h-1.07l84.47-84.47v1.08z"/><path class="cls-13" d="M339.02 235.32l-82.32 82.32h-1.08l83.4-83.39v1.07z"/><path class="cls-11" d="M339.02 236.4l-81.25 81.24h-1.07l82.32-82.32v1.08z"/><path class="cls-10" d="M339.02 237.47l-80.17 80.17h-1.08l81.25-81.24v1.07z"/><path class="cls-9" d="M339.02 238.55l-79.1 79.09h-1.07l80.17-80.17v1.08z"/><path class="cls-7" d="M339.02 239.62L261 317.64h-1.08l79.1-79.09v1.07z"/><path class="cls-6" d="M339.02 240.7l-76.95 76.94H261l78.02-78.02v1.08z"/><path class="cls-5" d="M339.02 241.77l-75.88 75.87h-1.07l76.95-76.94v1.07z"/><path class="cls-4" d="M339.02 242.85l-74.8 74.79h-1.08l75.88-75.87v1.08zM264.22 317.64l74.8-74.79v74.79h-74.8z"/></g><path d="M211.33 62.27A127.69 127.69 0 1 0 339 190 127.69 127.69 0 0 0 211.33 62.27zm0 230A102.35 102.35 0 1 1 313.67 190a102.34 102.34 0 0 1-102.34 102.3z" fill="#fff79c" opacity=".37"/><path d="M211.33 293.3A103.34 103.34 0 1 1 314.67 190a103.46 103.46 0 0 1-103.34 103.3zm0-204.68A101.34 101.34 0 1 0 312.67 190 101.45 101.45 0 0 0 211.33 88.62z" fill="url(#linear-gradient)"/><path d="M211.33 318.62c-71 0-128.67-57.72-128.67-128.66A128.67 128.67 0 0 1 340 190c0 70.9-57.72 128.62-128.67 128.62zm0-255.33A126.67 126.67 0 1 0 338 190 126.81 126.81 0 0 0 211.33 63.29z" fill="url(#linear-gradient-2)"/><path class="cls-318" d="M196.65 203.76s.61 4.52 4.4 6.61l-1-1.89s1.95-5.08-3.4-4.72z"/><path class="cls-318" d="M245.88 155.39a48.88 48.88 0 1 0 0 69.13 48.91 48.91 0 0 0 0-69.13zm-5 64.08c-.54.52-1.06 1-1.6 1.52-11.74 9.57-20.79 4.81-20.89 4.81-6.13-1.23-9.17-1.25-10.89-2.4-.43-.29-1.82-1-2.14-.85a3.9 3.9 0 0 1-4.74-.28 5.84 5.84 0 0 1-.44-.4c-2-2-1.29-4-.64-4.65.44-.46-.35-1.74-.35-1.74s-2.3-3.42-3.87-5.48c-1.74-2.26-2-6.74-2-6.8v-.06a18.3 18.3 0 0 1-2.54-3.73 9.36 9.36 0 0 0-1.35-1.64 9.06 9.06 0 0 1-.82-.9.36.36 0 0 1 0-.29c.16-1 2.25-3.11 2.7-3.4s2.93-1.81 2.93-1.81a4.73 4.73 0 0 1 3.61-2.1 17.35 17.35 0 0 1 6.85 1l1.47.47a67.22 67.22 0 0 1 6.37 2.47 30.27 30.27 0 0 0 3.54 1.38c3.05.8 8.44-1.67 9.57-2.71 1.87-1.7 2.67-2.83 2.68-3.77a2.06 2.06 0 0 0-.74-1.53c-.28-.25-.63-.72-1.07-1.17a2.61 2.61 0 0 0-.24-.22c-5.17-5.49-4.27-8.93-4.27-9 .22-2.46-1.19-4.05-2.71-5.69l-.25-.31a1.75 1.75 0 0 1-.18-.2c2.2.36 3.7 1.25 8 1.73a15.31 15.31 0 0 0 3.62.19c2.69-.09 4.82-.32 5-.93a38.18 38.18 0 0 1-7.15-2.12c-2.65-1-3.06-1.16-4.74-1.72-2.16-.73-4.5-1.74-4.5-1.74 9.31 2.45 12.35 3.4 16.61 3.46a14 14 0 0 0 3.21-.28c.6-.11 2.48-.54 2.69-1.19a15 15 0 0 1-5.26-.83c-10.86-3.59-11.79-5.39-17.81-7.73a52.84 52.84 0 0 0-9.13-2.9c-2.91-.75-7.3-.32-7.9.05-8.24-1.93-10.11-1.72-12.53-1.2a41.78 41.78 0 0 1 52 5.62 43.58 43.58 0 0 1 5.09 6.16l.19.3a41.74 41.74 0 0 1-5.28 52.56zm-27.37-47.11c4.09 1.46 5.41 5.81 5.41 5.81-5.2 1.19-4.11-4.12-4.11-4.12zM133.22 107.79a1.13 1.13 0 0 0-.9-.36 3.76 3.76 0 0 0-1.4.51 7.64 7.64 0 0 1-2.64 1 2.2 2.2 0 0 1-1.91-.7 2.29 2.29 0 0 1-.62-2.06 4.06 4.06 0 0 1 1.29-2.3 3.77 3.77 0 0 1 2.4-1.19 2.47 2.47 0 0 1 2.11.79l-1.31 1.29a1.42 1.42 0 0 0-1.07-.45 1.75 1.75 0 0 0-1.16.57 1.86 1.86 0 0 0-.61 1.07 1.08 1.08 0 0 0 .31.91.94.94 0 0 0 .88.25 6.19 6.19 0 0 0 1.56-.61 5.8 5.8 0 0 1 2.5-.84 2.41 2.41 0 0 1 1.9.77 2.29 2.29 0 0 1 .66 2 4.24 4.24 0 0 1-1.32 2.28 4.61 4.61 0 0 1-2.49 1.32 2.5 2.5 0 0 1-2.37-.81l1.32-1.3a1.46 1.46 0 0 0 1.24.52 2.33 2.33 0 0 0 1.31-.73 1.83 1.83 0 0 0 .62-1.06 1 1 0 0 0-.3-.87zM135.1 101.13a2.53 2.53 0 0 1 .14-1.1 2.39 2.39 0 0 1 2.44-1.45 3.43 3.43 0 0 1 1.94 1.34l2.69 3.2-1.45 1.22-2.71-3.22a1.8 1.8 0 0 0-1-.7 1 1 0 0 0-.88.29 1.6 1.6 0 0 0-.44.55 1.36 1.36 0 0 0-.13.62l3.34 4-1.46 1.22-6.54-7.78 1.46-1.23zM147.19 99.5a3.19 3.19 0 0 1-.44-.31 2.93 2.93 0 0 1-.41-.38 2.62 2.62 0 0 1-.12 1.15 1.94 1.94 0 0 1-.73.94 2.33 2.33 0 0 1-1.72.54 2 2 0 0 1-1.39-.9 1.85 1.85 0 0 1-.3-1.77 4 4 0 0 1 1.55-1.83l.86-.62-.33-.46a1.14 1.14 0 0 0-.68-.48 1.08 1.08 0 0 0-.8.24 1 1 0 0 0-.45.6.8.8 0 0 0 .17.65l-1.5 1.07a1.79 1.79 0 0 1-.28-1.71 3.4 3.4 0 0 1 1.38-1.81 3.17 3.17 0 0 1 2-.68 2.18 2.18 0 0 1 1.71 1l1.71 2.36a6.26 6.26 0 0 0 .61.71 4.77 4.77 0 0 0 .7.56zm-2.15 0a1.68 1.68 0 0 0 .58-.72 1.37 1.37 0 0 0 .09-.78l-.59-.8-.86.62a1.25 1.25 0 0 0-.56.79 1 1 0 0 0 .17.77.72.72 0 0 0 .53.32.87.87 0 0 0 .6-.21zM153.74 91.28a4.07 4.07 0 0 1 .72 2.51 2.4 2.4 0 0 1-1.22 1.88 2.21 2.21 0 0 1-.94.35 2.18 2.18 0 0 1-.94-.12l1.79 2.87-1.61 1-5.17-8.29 1.46-.9.53.65a2.4 2.4 0 0 1 .27-1 2 2 0 0 1 .73-.75 2.37 2.37 0 0 1 2.27-.21 4.58 4.58 0 0 1 2 1.9zm-1.69.88a3.48 3.48 0 0 0-1.14-1.2 1.09 1.09 0 0 0-1.19 0 1.51 1.51 0 0 0-.53.54 1.21 1.21 0 0 0-.14.68l1.63 2.63a1.25 1.25 0 0 0 .65.13 1.71 1.71 0 0 0 .72-.26 1.09 1.09 0 0 0 .57-1 2.8 2.8 0 0 0-.5-1.41zM159.82 91.92a3.16 3.16 0 0 1-2.61.28 3.48 3.48 0 0 1-2-1.76l-.13-.23a3.82 3.82 0 0 1-.44-2.69 3.22 3.22 0 0 1 3.93-2.26 3.32 3.32 0 0 1 1.82 1.74l.48.91-3.72 2a1.78 1.78 0 0 0 .94.79 1.42 1.42 0 0 0 1.21-.13 3.75 3.75 0 0 0 .87-.6 5.3 5.3 0 0 0 .61-.78l1 .8a3.37 3.37 0 0 1-.72 1 4.69 4.69 0 0 1-1.24.93zm-2.89-5.09a1 1 0 0 0-.55.75 2.08 2.08 0 0 0 .16 1.12l2.07-1.1-.08-.15a1.59 1.59 0 0 0-.71-.72 1 1 0 0 0-.89.1zM166 79.19l.67 1.6 1.09-.46.52 1.23-1.1.46 1.38 3.31a.86.86 0 0 0 .39.48.62.62 0 0 0 .48 0 1.2 1.2 0 0 0 .23-.12l.22-.14.68 1.2a4.76 4.76 0 0 1-.47.35 3.17 3.17 0 0 1-.52.27 2 2 0 0 1-1.61.09 2.38 2.38 0 0 1-1.15-1.38l-1.38-3.32-.95.4-.48-1.24 1-.4-.66-1.59zM171.82 79.76a2.4 2.4 0 0 1 .52-1 2.1 2.1 0 0 1 .92-.61 2.16 2.16 0 0 1 1.87.12 3.38 3.38 0 0 1 1.34 1.93l1.38 4-1.8.63-1.38-4a1.81 1.81 0 0 0-.66-1 1.1 1.1 0 0 0-.93 0 1.78 1.78 0 0 0-.6.36 1.34 1.34 0 0 0-.34.54l1.7 4.89-1.79.62-3.35-9.59 1.8-.63zM182.78 82.93a3.2 3.2 0 0 1-2.61-.31 3.48 3.48 0 0 1-1.53-2.16l-.07-.25a3.86 3.86 0 0 1 .16-2.72 3.22 3.22 0 0 1 4.34-1.33 3.33 3.33 0 0 1 1.36 2l.27 1-4.06 1.1a1.75 1.75 0 0 0 .75 1 1.45 1.45 0 0 0 1.2.14 3.49 3.49 0 0 0 1-.4 4.86 4.86 0 0 0 .77-.62l.81 1a3.61 3.61 0 0 1-.94.86 4.8 4.8 0 0 1-1.45.69zm-1.69-5.61a1 1 0 0 0-.7.61 2.08 2.08 0 0 0-.09 1.13l2.25-.61-.05-.16a1.51 1.51 0 0 0-.52-.86 1 1 0 0 0-.89-.11zM191.42 80.84l-1-5.63-1 .18-.22-1.32 1-.18-.13-.77a2.37 2.37 0 0 1 .37-1.91 2.68 2.68 0 0 1 1.78-1 3.87 3.87 0 0 1 .49 0h.56l.08 1.42h-.64a1 1 0 0 0-.65.37 1 1 0 0 0-.11.76l.13.77 1.38-.23.22 1.31-1.38.24 1 5.63zM200.32 78.58a2.35 2.35 0 0 1-.73.93 2.42 2.42 0 0 1-2.92-.09 3.3 3.3 0 0 1-.87-2.14l-.46-4.23 1.88-.21.47 4.26a1.76 1.76 0 0 0 .38 1.07.9.9 0 0 0 .8.25 1.89 1.89 0 0 0 .76-.23 1.33 1.33 0 0 0 .48-.49l-.56-5.11 1.9-.21.76 7-1.61.18zM206 70.4l.09 1.73 1.18-.06.07 1.34h-1.19l.17 3.59a.89.89 0 0 0 .2.58.62.62 0 0 0 .47.15.9.9 0 0 0 .25 0l.25-.07.23 1.37a4.3 4.3 0 0 1-.55.17 3.5 3.5 0 0 1-.59.08 2 2 0 0 1-1.54-.47 2.37 2.37 0 0 1-.62-1.68l-.17-3.6-1 .06-.06-1.34h1l-.09-1.72zM213.7 78.08a2.31 2.31 0 0 1-.83.84 2.25 2.25 0 0 1-1.16.29 2.2 2.2 0 0 1-1.74-.74 3.31 3.31 0 0 1-.6-2.22v-4.26h1.9v4.27a1.78 1.78 0 0 0 .25 1.11.88.88 0 0 0 .76.35 1.84 1.84 0 0 0 .78-.14 1.26 1.26 0 0 0 .54-.43l.06-5.14h1.91l-.09 7.05h-1.62zM221.52 74.11l-.69-.07a1.31 1.31 0 0 0-.71.12 1.14 1.14 0 0 0-.45.47l-.34 4.75-1.89-.14.5-7 1.76.13v1a2.27 2.27 0 0 1 .71-.81 1.42 1.42 0 0 1 .93-.25 1.09 1.09 0 0 1 .26.05l.24.07zM225.71 80.18a3.16 3.16 0 0 1-2.29-1.29 3.48 3.48 0 0 1-.59-2.58v-.25a3.84 3.84 0 0 1 1.19-2.46 2.86 2.86 0 0 1 2.43-.7 2.83 2.83 0 0 1 2.12 1.1 3.27 3.27 0 0 1 .48 2.41l-.13 1-4.17-.54a1.82 1.82 0 0 0 .31 1.19 1.47 1.47 0 0 0 1.06.59 3.71 3.71 0 0 0 1.05 0 4.78 4.78 0 0 0 1-.28l.36 1.23a3.52 3.52 0 0 1-1.19.44 5.11 5.11 0 0 1-1.63.14zm.59-5.83a1 1 0 0 0-.88.3 2.11 2.11 0 0 0-.52 1l2.31.31v-.17a1.54 1.54 0 0 0-.16-1 1 1 0 0 0-.75-.44zM240.54 80.42l2-4.17 1.73.43-3.45 6.41-1.54-.39-.25-4.39-2.29 3.76-1.53-.39v-7.27l1.73.43-.19 4.61 2.37-4.06 1.23.31zM245.88 84.66l-1.82-.58 2.16-6.72 1.81.58zm2.66-8.32l-1.81-.58.44-1.36 1.83.6zM253.05 77.88l-.59 1.62 1.11.41-.46 1.26-1.11-.41-1.24 3.37a.78.78 0 0 0 0 .61.61.61 0 0 0 .36.32l.25.07h.25l-.32 1.34a3.45 3.45 0 0 1-.57-.05 5.11 5.11 0 0 1-.58-.16 2.05 2.05 0 0 1-1.23-1 2.35 2.35 0 0 1 .09-1.79l1.24-3.38-1-.35.46-1.26 1 .36.6-1.62zM256.91 82.23a2.53 2.53 0 0 1 1-.36 2 2 0 0 1 1.08.18 2.16 2.16 0 0 1 1.3 1.36 3.47 3.47 0 0 1-.33 2.33l-1.68 3.83-1.74-.76 1.73-3.81a1.8 1.8 0 0 0 .2-1.19 1 1 0 0 0-.65-.65 1.49 1.49 0 0 0-.69-.15 1.26 1.26 0 0 0-.61.16l-2.07 4.75-1.75-.76 4.07-9.32 1.74.76zM275 87.83l-3.17 5.45a3 3 0 0 1-2.15 1.59 4.81 4.81 0 0 1-4.76-2.77 3 3 0 0 1 .33-2.65L268.4 84l1.65 1-3.16 5.43a1.84 1.84 0 0 0-.28 1.47 2.31 2.31 0 0 0 2.41 1.4 1.8 1.8 0 0 0 1.14-1l3.17-5.44zM277.61 98.11a1.08 1.08 0 0 0 .18-.94 3.7 3.7 0 0 0-.75-1.3 7.57 7.57 0 0 1-1.43-2.41 2.22 2.22 0 0 1 .34-2 2.31 2.31 0 0 1 1.91-1 4.16 4.16 0 0 1 2.5.85 3.79 3.79 0 0 1 1.64 2.14 2.51 2.51 0 0 1-.39 2.23L280 94.64a1.35 1.35 0 0 0 .25-1.12 1.72 1.72 0 0 0-.77-1 1.83 1.83 0 0 0-1.16-.4 1.07 1.07 0 0 0-.84.47.9.9 0 0 0-.09.9 6 6 0 0 0 .88 1.42 6.05 6.05 0 0 1 1.29 2.31 2.38 2.38 0 0 1-.42 2 2.23 2.23 0 0 1-1.89 1 4.13 4.13 0 0 1-2.48-.88 4.66 4.66 0 0 1-1.76-2.2 2.51 2.51 0 0 1 .37-2.48l1.62 1.03a1.44 1.44 0 0 0-.29 1.31 2.27 2.27 0 0 0 1 1.15 1.84 1.84 0 0 0 1.15.42 1 1 0 0 0 .75-.46zM279.28 102.42l6.07-7.3 2.51 2.09a3.88 3.88 0 0 1 1.49 2.68 3.81 3.81 0 0 1-1 2.91l-1 1.21a3.79 3.79 0 0 1-2.69 1.47 3.91 3.91 0 0 1-2.91-1zm6.6-5l-4.2 5 1 .81a2 2 0 0 0 1.68.49 2.64 2.64 0 0 0 1.59-1l1-1.22a2.67 2.67 0 0 0 .69-1.75 2 2 0 0 0-.79-1.55zM286.32 108.39l6.65-6.77 2.28 2.25a4.53 4.53 0 0 1 1.41 2.3 2.22 2.22 0 0 1-.7 2 2 2 0 0 1-1.07.59 2.19 2.19 0 0 1-1.27-.15 2 2 0 0 1 .37 1.45 2.68 2.68 0 0 1-2.76 2.13 4.13 4.13 0 0 1-2.31-1.29zm4.29-1.66l-1.91 2 1.25 1.23a1.78 1.78 0 0 0 1.05.57 1.2 1.2 0 0 0 1-.41 1.52 1.52 0 0 0 .5-1 1.41 1.41 0 0 0-.5-1zm.93-.94l1 1a1.9 1.9 0 0 0 1.06.6 1.07 1.07 0 0 0 .93-.36 1.13 1.13 0 0 0 .39-1 2 2 0 0 0-.66-1.09l-.93-.92zM314.18 235.34l1.31-3.06-1.64-1.39.76-1.77 7.45 6.71-.76 1.79-10-.71.75-1.77zm2.5-2.05l-.94 2.21 3.89.37zM306.79 249.1a.67.67 0 0 0 .62 0 3 3 0 0 0 .93-.75 4.51 4.51 0 0 1 1.62-1.22 1.62 1.62 0 0 1 1.49.16 1.94 1.94 0 0 1 .93 1.46 3.12 3.12 0 0 1-.52 2.08 3.32 3.32 0 0 1-1.66 1.5 1.86 1.86 0 0 1-1.76-.17l1-1.57a1 1 0 0 0 .73.13 1.13 1.13 0 0 0 .64-.54 1.07 1.07 0 0 0 .18-.74.7.7 0 0 0-.34-.52.67.67 0 0 0-.6 0 2.92 2.92 0 0 0-.9.77 4.63 4.63 0 0 1-1.66 1.26 1.7 1.7 0 0 1-1.52-.19 1.85 1.85 0 0 1-.9-1.5 3.49 3.49 0 0 1 .6-2.15 3.24 3.24 0 0 1 1.76-1.53 2 2 0 0 1 1.8.18l-.9 1.49a1 1 0 0 0-.9-.11 1.57 1.57 0 0 0-.69.65 1.37 1.37 0 0 0-.24.8.68.68 0 0 0 .29.51zM309.13 258l-1.43-1-.67 1-1.1-.76.67-1-3-2a.86.86 0 0 0-.58-.2.63.63 0 0 0-.41.28l-.13.22-.09.24-1.23-.64a3.93 3.93 0 0 1 .2-.55 3 3 0 0 1 .29-.52 2.06 2.06 0 0 1 1.31-.94 2.37 2.37 0 0 1 1.71.54l3 2 .59-.85 1.1.76-.59.84 1.43 1zM297.69 258.64a5.08 5.08 0 0 1 .51.17 3.4 3.4 0 0 1 .5.26 2.64 2.64 0 0 1-.2-1.14 2 2 0 0 1 .43-1.11 2.46 2.46 0 0 1 1.5-1 2 2 0 0 1 1.6.49 1.88 1.88 0 0 1 .78 1.61 4 4 0 0 1-1 2.19l-.65.84.44.34a1.13 1.13 0 0 0 .79.28 1.09 1.09 0 0 0 .71-.45 1.13 1.13 0 0 0 .26-.7.83.83 0 0 0-.34-.59l1.13-1.44a1.8 1.8 0 0 1 .74 1.56 3.48 3.48 0 0 1-.81 2.1 3.17 3.17 0 0 1-1.77 1.22 2.23 2.23 0 0 1-1.93-.5l-2.3-1.79a5.77 5.77 0 0 0-.78-.51 4.66 4.66 0 0 0-.83-.34zm2.07-.59a1.7 1.7 0 0 0-.35.86 1.27 1.27 0 0 0 .13.77l.78.61.66-.84a1.3 1.3 0 0 0 .32-.91 1 1 0 0 0-.39-.7.72.72 0 0 0-.59-.16.9.9 0 0 0-.56.37zM293.69 268.35a4.12 4.12 0 0 1-1.4-2.21 2.38 2.38 0 0 1 .65-2.15 2.21 2.21 0 0 1 .91-.62 2.29 2.29 0 0 1 1.08-.08l-.55-.69 1.09-1.21 7.55 6.8-1.26 1.41-2.88-2.6a2.16 2.16 0 0 1 0 1 2 2 0 0 1-.49.88 2.32 2.32 0 0 1-2.12.84 4.64 4.64 0 0 1-2.48-1.28zm1.37-1.32a3.73 3.73 0 0 0 1.42.87 1.06 1.06 0 0 0 1.14-.36 1.48 1.48 0 0 0 .37-.68 1.28 1.28 0 0 0-.08-.72l-2.23-2a1.24 1.24 0 0 0-.69 0 1.43 1.43 0 0 0-.63.45 1.09 1.09 0 0 0-.31 1.11 3.06 3.06 0 0 0 .91 1.21zM288.55 268.75l1.35-1.34 7.16 7.21-1.35 1.38zM284.62 272.21a3.17 3.17 0 0 1 2.47-.89 3.45 3.45 0 0 1 2.33 1.24l.18.2a3.92 3.92 0 0 1 1.08 2.5 3.22 3.22 0 0 1-3.28 3.13 3.31 3.31 0 0 1-2.14-1.21l-.69-.77 3.14-2.81a1.72 1.72 0 0 0-1.11-.54 1.42 1.42 0 0 0-1.13.41 3.45 3.45 0 0 0-.7.79 4.57 4.57 0 0 0-.41.91l-1.17-.53a3.59 3.59 0 0 1 .45-1.19 4.84 4.84 0 0 1 .98-1.24zm4 4.25a1 1 0 0 0 .36-.85 2.12 2.12 0 0 0-.43-1.05l-1.74 1.55.11.13a1.5 1.5 0 0 0 .85.53 1 1 0 0 0 .87-.31zM279.81 278.1a1.11 1.11 0 0 0-.46.73 1.05 1.05 0 0 0 .24.81l-1.36 1.06a2.16 2.16 0 0 1-.46-1.9 3.37 3.37 0 0 1 3.71-2.54 3.84 3.84 0 0 1 2.25 1.5l.12.15a3.85 3.85 0 0 1 .9 2.55 3 3 0 0 1-1.3 2.28 3 3 0 0 1-2.12.7 2.47 2.47 0 0 1-1.81-1.07l1.37-1.06a1.37 1.37 0 0 0 .79.53 1 1 0 0 0 .88-.22 1.1 1.1 0 0 0 .48-1.12 3.27 3.27 0 0 0-.68-1.38l-.12-.15a3.24 3.24 0 0 0-1.18-1 1.11 1.11 0 0 0-1.25.13zM277.68 282.56a3.78 3.78 0 0 1 .71 2.64 3.06 3.06 0 0 1-1.46 2.19 3.1 3.1 0 0 1-2.6.53 3.8 3.8 0 0 1-2.17-1.65l-.08-.12a3.75 3.75 0 0 1-.71-2.64 3.48 3.48 0 0 1 4.06-2.72 3.75 3.75 0 0 1 2.18 1.66zm-1.65.95a3 3 0 0 0-1.14-1.1 1.16 1.16 0 0 0-1.23.13 1.14 1.14 0 0 0-.57 1.08 3.06 3.06 0 0 0 .57 1.47l.08.12a3 3 0 0 0 1.14 1.08 1.3 1.3 0 0 0 1.8-1.21 3.17 3.17 0 0 0-.57-1.46zM267 285.18l1.63-1 3.6 6.06-1.63 1zm4.46 7.51l1.63-1 .73 1.23-1.63 1zM266.89 293.29l-.55-.85a2.52 2.52 0 0 1-.37 1.14 2.23 2.23 0 0 1-.89.8 2.13 2.13 0 0 1-1.79.18 3.09 3.09 0 0 1-1.5-1.58l-2.05-3.91 1.69-.88 2.05 3.9a1.47 1.47 0 0 0 .72.77 1.2 1.2 0 0 0 .91-.14 1.57 1.57 0 0 0 .53-.45 1.52 1.52 0 0 0 .24-.62l-2.38-4.54 1.69-.89 3.27 6.25zM252.32 296.11a4.55 4.55 0 0 1 .21 2.78 2.35 2.35 0 0 1-1.58 1.64 1.9 1.9 0 0 1-1.07.1 2.37 2.37 0 0 1-1-.46l.16.89-1.55.55-2.32-6.61a2.61 2.61 0 0 1 .14-2.31 3.85 3.85 0 0 1 2.12-1.55 5.24 5.24 0 0 1 2.29-.23l.14 1.46a3.7 3.7 0 0 0-.94 0 4.63 4.63 0 0 0-1 .22 1.72 1.72 0 0 0-1 .7 1.29 1.29 0 0 0 0 1.08l.21.6a2.1 2.1 0 0 1 1.34-1.34 2.4 2.4 0 0 1 2.23.23 3.94 3.94 0 0 1 1.52 2.12zm-1.84.51a2.84 2.84 0 0 0-.79-1.28 1.08 1.08 0 0 0-1.13-.17 1.6 1.6 0 0 0-.65.4 1.3 1.3 0 0 0-.3.61l1 2.9a1.45 1.45 0 0 0 .62.31 1.42 1.42 0 0 0 .75-.08 1.05 1.05 0 0 0 .75-.93 3.33 3.33 0 0 0-.24-1.63zM239.43 297.67a2.33 2.33 0 0 1 .57-1.05 2.46 2.46 0 0 1 2.91-.36 3.27 3.27 0 0 1 1.19 2l1.12 4.1-1.82.5-1.14-4.12a1.76 1.76 0 0 0-.54-1 .91.91 0 0 0-.83-.12 1.89 1.89 0 0 0-.71.35 1.34 1.34 0 0 0-.41.56l1.36 5-1.83.5-1.87-6.8 1.57-.43zM231.46 298.41a3.47 3.47 0 0 1 .27.46 2.57 2.57 0 0 1 .21.52 2.64 2.64 0 0 1 .6-1 1.91 1.91 0 0 1 1.05-.55 2.39 2.39 0 0 1 1.79.22 2.09 2.09 0 0 1 .89 1.41 1.88 1.88 0 0 1-.47 1.73 3.93 3.93 0 0 1-2.18 1l-1 .21.11.55a1.12 1.12 0 0 0 .41.72 1.26 1.26 0 0 0 1.49-.24.76.76 0 0 0 .12-.65l1.81-.36a1.78 1.78 0 0 1-.46 1.66 3.34 3.34 0 0 1-2 1.06 3.23 3.23 0 0 1-2.14-.23 2.28 2.28 0 0 1-1.13-1.64l-.56-2.86a5.91 5.91 0 0 0-.26-.9 4.6 4.6 0 0 0-.4-.8zm1.95.91a1.63 1.63 0 0 0-.83.41 1.29 1.29 0 0 0-.4.67l.19 1 1-.21a1.3 1.3 0 0 0 .85-.48 1 1 0 0 0 .16-.78.75.75 0 0 0-.34-.51.87.87 0 0 0-.63-.1zM225 304.88l.69-.08a1.32 1.32 0 0 0 .67-.27 1.08 1.08 0 0 0 .34-.55l-.65-4.72L228 299l1 7-1.75.24-.22-1a2.3 2.3 0 0 1-.52.94 1.39 1.39 0 0 1-.86.43 1.18 1.18 0 0 1-.26 0h-.25zM218.66 300a4.25 4.25 0 0 1 .21.49 2.72 2.72 0 0 1 .15.54 2.64 2.64 0 0 1 .71-.91 2 2 0 0 1 1.11-.43 2.41 2.41 0 0 1 1.75.44 2 2 0 0 1 .72 1.5 1.86 1.86 0 0 1-.67 1.66 4 4 0 0 1-2.28.75l-1.06.09v.56a1.12 1.12 0 0 0 .33.76 1.08 1.08 0 0 0 .81.22 1 1 0 0 0 .69-.28.78.78 0 0 0 .2-.64l1.84-.14a1.81 1.81 0 0 1-.66 1.6 3.39 3.39 0 0 1-2.1.81 3.09 3.09 0 0 1-2.09-.48 2.2 2.2 0 0 1-.93-1.76l-.23-2.9a4.52 4.52 0 0 0-.15-.93 4.7 4.7 0 0 0-.3-.84zm1.83 1.13a1.64 1.64 0 0 0-.87.32 1.23 1.23 0 0 0-.48.61l.08 1 1.05-.09a1.27 1.27 0 0 0 .9-.37 1 1 0 0 0 .25-.76.72.72 0 0 0-.28-.54.9.9 0 0 0-.65-.15zM213.42 307.29l-.09-1a2.65 2.65 0 0 1-.86.84 2.29 2.29 0 0 1-1.16.31 2.15 2.15 0 0 1-1.67-.66 3.1 3.1 0 0 1-.61-2.1v-4.4h1.91v4.41a1.45 1.45 0 0 0 .29 1 1.18 1.18 0 0 0 .87.29 1.44 1.44 0 0 0 .67-.16 1.32 1.32 0 0 0 .5-.44v-5.12h1.9l.05 7zM204.32 308.83l.09-1.72-1.19-.07.08-1.33 1.18.06.19-3.58a.85.85 0 0 0-.14-.6.59.59 0 0 0-.44-.2h-.26l-.25.05-.09-1.39a4 4 0 0 1 .56-.11 3.88 3.88 0 0 1 .6 0 2 2 0 0 1 1.48.62 2.36 2.36 0 0 1 .44 1.74l-.19 3.59 1 .06-.07 1.33-1-.05-.09 1.72zM198.78 299.41a3.14 3.14 0 0 1 2.31 1.24 3.4 3.4 0 0 1 .63 2.56v.26a3.88 3.88 0 0 1-1.15 2.48 2.87 2.87 0 0 1-2.41.75 2.9 2.9 0 0 1-2.11-1.1 3.3 3.3 0 0 1-.52-2.4l.11-1 4.18.46a1.82 1.82 0 0 0-.34-1.19 1.42 1.42 0 0 0-1.06-.57 3.68 3.68 0 0 0-1.06 0 4.28 4.28 0 0 0-1 .3l-.38-1.23a3.68 3.68 0 0 1 1.18-.46 4.78 4.78 0 0 1 1.62-.1zm-.48 5.83a1 1 0 0 0 .87-.31 2 2 0 0 0 .5-1l-2.32-.26v.17a1.6 1.6 0 0 0 .18 1 1 1 0 0 0 .77.4zM191.29 298.29a3.18 3.18 0 0 1 2.23 1.4 3.48 3.48 0 0 1 .45 2.6v.26a3.92 3.92 0 0 1-1.31 2.39 3.23 3.23 0 0 1-4.49-.66 3.36 3.36 0 0 1-.36-2.43l.18-1 4.15.75a1.85 1.85 0 0 0-.26-1.2 1.45 1.45 0 0 0-1-.64 3.26 3.26 0 0 0-1.05-.06 4.63 4.63 0 0 0-1 .23l-.3-1.25a3.58 3.58 0 0 1 1.22-.38 4.88 4.88 0 0 1 1.54-.01zm-.87 5.79a1 1 0 0 0 .89-.25 2 2 0 0 0 .56-1l-2.3-.42v.17a1.55 1.55 0 0 0 .11 1 1 1 0 0 0 .74.5zM186.34 301a4.63 4.63 0 0 1-1.36 2.43 2.36 2.36 0 0 1-2.22.49 2 2 0 0 1-.87-.46 2.49 2.49 0 0 1-.56-.81l-1 3.74-1.85-.47 2.51-9.85 1.58.4-.06.88a2.26 2.26 0 0 1 .95-.53 2 2 0 0 1 1.07 0 2.4 2.4 0 0 1 1.72 1.42 4.09 4.09 0 0 1 .07 2.61zm-1.8-.61a3 3 0 0 0 .06-1.49 1.08 1.08 0 0 0-.86-.77 1.52 1.52 0 0 0-.73 0 1.39 1.39 0 0 0-.61.35l-.75 2.93a1.41 1.41 0 0 0 .36.63 1.34 1.34 0 0 0 .64.36 1.08 1.08 0 0 0 1.14-.36 3.45 3.45 0 0 0 .71-1.49zM164.68 293.69a4.07 4.07 0 0 1 1.62-2.07 2.39 2.39 0 0 1 2.23-.1 2.18 2.18 0 0 1 .9.65 2.28 2.28 0 0 1 .43 1l.47-.75 1.5.62-3.87 9.4-1.75-.72 1.47-3.58a2.22 2.22 0 0 1-.93.33 2.08 2.08 0 0 1-1-.17 2.34 2.34 0 0 1-1.51-1.71 4.7 4.7 0 0 1 .38-2.77zm1.71.84a3.7 3.7 0 0 0-.35 1.64 1 1 0 0 0 .72.95 1.43 1.43 0 0 0 .77.11 1.27 1.27 0 0 0 .65-.31l1.14-2.77a1.21 1.21 0 0 0-.26-.64 1.66 1.66 0 0 0-.64-.45 1.07 1.07 0 0 0-1.15.09 3.09 3.09 0 0 0-.83 1.26zM160.91 291.45l.1-.39-3.2 3.42-1.83-.91 6.16-6a3.78 3.78 0 0 1 1.29-.78 2.09 2.09 0 0 1 1.57.21 2.36 2.36 0 0 1 .39.23l.4.33-.79 1.14-.15-.1-.15-.09a1.05 1.05 0 0 0-.75-.12 1.57 1.57 0 0 0-.61.35l-.44.39-.88 7.42-1.83-.9zM151.2 282.62l-5.38 7.81-2.64-1.82a4.53 4.53 0 0 1-1.78-2 2.22 2.22 0 0 1 .33-2.14 2 2 0 0 1 2.23-.83 2 2 0 0 1-.61-1.37 2.32 2.32 0 0 1 .44-1.39 2.45 2.45 0 0 1 1.91-1.19 4.09 4.09 0 0 1 2.49.87zm-4.69 3.46l-1.13-.78a1.94 1.94 0 0 0-1.14-.41 1.09 1.09 0 0 0-.86.52 1.13 1.13 0 0 0-.21 1 2 2 0 0 0 .84 1l1.07.74zm.74-1.09l1.55-2.25-1.44-1a1.8 1.8 0 0 0-1.14-.39 1.22 1.22 0 0 0-.87.58A1.48 1.48 0 0 0 145 283a1.41 1.41 0 0 0 .67.91zM137 283.09l1.5 1.17-.88 1.13-1.5-1.17zm5.38-6.88l1.5 1.17-4.34 5.55-1.5-1.17zM134.71 279.05l.6-.82a2.59 2.59 0 0 1-1.2.07 2.32 2.32 0 0 1-1.07-.54 2.14 2.14 0 0 1-.81-1.6 3.12 3.12 0 0 1 .93-2l2.9-3.31 1.44 1.25-2.9 3.32a1.46 1.46 0 0 0-.45.95 1.14 1.14 0 0 0 .46.79 1.36 1.36 0 0 0 .61.33 1.34 1.34 0 0 0 .66 0l3.38-3.86 1.43 1.25-4.64 5.31zM131.75 266.6a3.49 3.49 0 0 1-.23.48 3.7 3.7 0 0 1-.31.46 2.59 2.59 0 0 1 1.14-.05 1.91 1.91 0 0 1 1.05.58 2.41 2.41 0 0 1 .8 1.61 2 2 0 0 1-.69 1.52 1.87 1.87 0 0 1-1.7.56 4 4 0 0 1-2-1.25l-.75-.76-.4.4a1.08 1.08 0 0 0-.37.74 1 1 0 0 0 .35.76 1.07 1.07 0 0 0 .67.35.8.8 0 0 0 .61-.26l1.29 1.31a1.78 1.78 0 0 1-1.64.53 3.38 3.38 0 0 1-2-1.07 3.2 3.2 0 0 1-1-1.92 2.25 2.25 0 0 1 .75-1.84l2.07-2a5.62 5.62 0 0 0 .61-.75 5 5 0 0 0 .45-.78zm.33 2.13a1.68 1.68 0 0 0-.81-.47 1.44 1.44 0 0 0-.78 0l-.71.71.75.75a1.26 1.26 0 0 0 .86.44 1 1 0 0 0 .74-.29.74.74 0 0 0 .24-.57.94.94 0 0 0-.29-.57zM122.79 264.78l.45.54a1.27 1.27 0 0 0 .59.4 1.11 1.11 0 0 0 .65 0l3.58-3.15 1.25 1.43-5.3 4.65-1.16-1.32.72-.75a2.21 2.21 0 0 1-1.07.08 1.45 1.45 0 0 1-.83-.47 2.39 2.39 0 0 1-.16-.22l-.12-.22zM121.89 259.76l.26-.3-4.36 1.7-1.26-1.61 8.15-2.74a3.72 3.72 0 0 1 1.5-.14 2.09 2.09 0 0 1 1.36.9 2 2 0 0 1 .24.38 4.06 4.06 0 0 1 .22.46l-1.23.68a.65.65 0 0 0-.09-.16.56.56 0 0 0-.1-.15 1 1 0 0 0-.62-.43 1.53 1.53 0 0 0-.7.05l-.57.16-4 6.31-1.26-1.62zM120.63 253.08l1.1 1.55-1.36 1-1.1-1.56zM116.6 249.4a1.1 1.1 0 0 0-.69-.53 1 1 0 0 0-.83.16l-.92-1.46a2.18 2.18 0 0 1 1.94-.27 3.38 3.38 0 0 1 2.17 3.94 3.79 3.79 0 0 1-1.7 2.09l-.17.11a3.86 3.86 0 0 1-2.62.65 3 3 0 0 1-2.14-1.52 2.91 2.91 0 0 1-.5-2.17 2.46 2.46 0 0 1 1.24-1.7l.92 1.47a1.34 1.34 0 0 0-.6.74 1 1 0 0 0 .13.89 1.11 1.11 0 0 0 1.07.58 3.14 3.14 0 0 0 1.44-.54l.16-.1a3.15 3.15 0 0 0 1.12-1.08 1.1 1.1 0 0 0-.02-1.26zM112.35 246.84a3.76 3.76 0 0 1-2.69.45 3.48 3.48 0 0 1-2.32-4.3 3.78 3.78 0 0 1 1.85-2l.13-.06a3.67 3.67 0 0 1 2.69-.45 3.48 3.48 0 0 1 2.32 4.3 3.78 3.78 0 0 1-1.86 2zm-.78-1.73a3.14 3.14 0 0 0 1.2-1 1.18 1.18 0 0 0 0-1.24 1.16 1.16 0 0 0-1-.67 3.15 3.15 0 0 0-1.52.43l-.12.07a3 3 0 0 0-1.18 1 1.16 1.16 0 0 0 0 1.24 1.13 1.13 0 0 0 1 .66 3 3 0 0 0 1.51-.42zM104.38 239l.83-.44a2.37 2.37 0 0 1-1.06-.47 2.53 2.53 0 0 1-.72-1 2.09 2.09 0 0 1-.18-1.18 1.82 1.82 0 0 1 .54-1 2.44 2.44 0 0 1-1.15-.43 2.25 2.25 0 0 1-.77-1 2 2 0 0 1 0-1.79 3.29 3.29 0 0 1 1.78-1.42l3.92-1.69.75 1.75-3.93 1.67a1.78 1.78 0 0 0-.92.68 1 1 0 0 0 0 .84 1.27 1.27 0 0 0 .44.57 1.42 1.42 0 0 0 .64.24l.2-.09.16-.08 4.26-1.83.75 1.74-3.92 1.68a1.81 1.81 0 0 0-.92.68 1 1 0 0 0 0 .84 1.43 1.43 0 0 0 .41.56 1.18 1.18 0 0 0 .57.28l4.73-2 .75 1.74-6.48 2.78z"/><path class="cls-318" d="M211.22 248.5a59.33 59.33 0 0 1-28-111.6l.47.88a58.32 58.32 0 1 0 68.81 10.16l.71-.71a59.33 59.33 0 0 1-41.99 101.27z"/><circle class="cls-318" cx="252.71" cy="147.78" r="3"/><circle class="cls-318" cx="184.71" cy="136.78" r="3"/><path class="cls-318" d="M211.33 269.28a81.32 81.32 0 0 1-57.5-138.82l.71.7a80.31 80.31 0 1 0 72.78-21.93 80.67 80.67 0 0 0-16-1.59v-1a81.32 81.32 0 0 1 0 162.64z"/><circle class="cls-318" cx="211.73" cy="107.54" r="3"/><circle class="cls-318" cx="153.39" cy="131.3" r="3"/><path class="cls-318" d="M210.62 258.78a71 71 0 0 1-69.39-56.55l1-.2a69.74 69.74 0 1 0 53.16-82.23l-.22-1a70.83 70.83 0 1 1 15.46 140z"/><circle class="cls-318" cx="198.27" cy="119.32" r="3"/><circle class="cls-318" cx="142.35" cy="203.47" r="3"/><path class="cls-318" d="M211.33 280.28a92.25 92.25 0 1 1 85.87-58.36l-.93-.36a91.27 91.27 0 1 0-59.64 54.16l.28 1a92.54 92.54 0 0 1-25.58 3.56z"/><circle class="cls-318" cx="296.66" cy="222.42" r="3"/><circle class="cls-318" cx="236.77" cy="276.21" r="3"/><path class="cls-318" d="M101 223a1.48 1.48 0 0 1 1-1.87 1.5 1.5 0 0 1 1.88 1 1.5 1.5 0 0 1-1 1.88 1.35 1.35 0 0 1-.44.07A1.49 1.49 0 0 1 101 223zm-1.9-6.83a1.5 1.5 0 0 1 1.1-1.81 1.5 1.5 0 0 1 1.82 1.1 1.51 1.51 0 0 1-1.11 1.81 1.45 1.45 0 0 1-.35 0 1.49 1.49 0 0 1-1.45-1.13zm-1.47-6.94a1.51 1.51 0 0 1 1.21-1.74 1.5 1.5 0 0 1 1.74 1.21 1.5 1.5 0 0 1-1.21 1.75h-.26a1.5 1.5 0 0 1-1.47-1.25zm-1-7a1.49 1.49 0 0 1 1.32-1.66 1.49 1.49 0 0 1 1.66 1.31 1.5 1.5 0 0 1-1.31 1.67h-.18a1.51 1.51 0 0 1-1.52-1.36zm-.63-7.1a1.5 1.5 0 0 1 1.42-1.58A1.5 1.5 0 0 1 99 195a1.51 1.51 0 0 1-1.41 1.58h-.09a1.5 1.5 0 0 1-1.5-1.45zm1.32-5.59a1.5 1.5 0 0 1-1.5-1.5 1.51 1.51 0 0 1 1.51-1.5 1.5 1.5 0 0 1 1.49 1.51 1.49 1.49 0 0 1-1.49 1.49zm1.5-1.49zm-1.35-5.51a1.5 1.5 0 0 1-1.4-1.59 1.5 1.5 0 0 1 1.6-1.4 1.51 1.51 0 0 1 1.4 1.59 1.51 1.51 0 0 1-1.5 1.41h-.1zm.58-7a1.49 1.49 0 0 1-1.29-1.68 1.48 1.48 0 0 1 1.67-1.29 1.5 1.5 0 0 1 1.3 1.67 1.51 1.51 0 0 1-1.49 1.32zm1-6.93a1.49 1.49 0 0 1-1.19-1.75 1.5 1.5 0 0 1 1.75-1.2 1.5 1.5 0 0 1 1.19 1.76 1.49 1.49 0 0 1-1.47 1.22 1.33 1.33 0 0 1-.28-.01zm1.43-6.85A1.51 1.51 0 0 1 99.4 160a1.5 1.5 0 0 1 1.82-1.08 1.49 1.49 0 0 1 1.08 1.83 1.5 1.5 0 0 1-1.45 1.12 1.61 1.61 0 0 1-.37-.09zm1.85-6.75a1.49 1.49 0 0 1-1-1.89 1.48 1.48 0 0 1 1.88-1 1.5 1.5 0 0 1 1 1.89 1.51 1.51 0 0 1-1.43 1 1.83 1.83 0 0 1-.45-.01zm2.27-6.63a1.51 1.51 0 0 1-.85-2 1.49 1.49 0 0 1 1.94-.84 1.49 1.49 0 0 1 .85 1.94 1.5 1.5 0 0 1-1.39.95 1.49 1.49 0 0 1-.55-.03zm2.67-6.47a1.5 1.5 0 0 1-.73-2 1.51 1.51 0 0 1 2-.73 1.49 1.49 0 0 1 .72 2 1.49 1.49 0 0 1-1.36.87 1.41 1.41 0 0 1-.63-.12zm3.06-6.3a1.5 1.5 0 0 1-.6-2 1.5 1.5 0 0 1 2-.6 1.5 1.5 0 0 1 .6 2 1.51 1.51 0 0 1-1.32.79 1.46 1.46 0 0 1-.68-.17zm3.45-6.09a1.5 1.5 0 0 1-.48-2.06 1.5 1.5 0 0 1 2.07-.48 1.49 1.49 0 0 1 .48 2.06 1.51 1.51 0 0 1-1.28.71 1.45 1.45 0 0 1-.79-.21zm3.81-5.87a1.49 1.49 0 0 1-.34-2.09 1.51 1.51 0 0 1 2.1-.35 1.5 1.5 0 0 1 .35 2.09 1.52 1.52 0 0 1-1.22.63 1.51 1.51 0 0 1-.89-.26zm4.17-5.62a1.51 1.51 0 0 1-.22-2.11 1.49 1.49 0 0 1 2.11-.22 1.5 1.5 0 0 1 .22 2.11 1.52 1.52 0 0 1-1.17.55 1.52 1.52 0 0 1-.94-.31zM320.06 224.08a1.5 1.5 0 0 1-1-1.87 1.5 1.5 0 0 1 1.87-1 1.5 1.5 0 0 1 1 1.87 1.5 1.5 0 0 1-1.43 1.06 1.67 1.67 0 0 1-.44-.06zm1.91-6.74a1.49 1.49 0 0 1-1.12-1.8 1.5 1.5 0 0 1 1.81-1.12 1.5 1.5 0 0 1 1.11 1.81 1.48 1.48 0 0 1-1.45 1.15 1.39 1.39 0 0 1-.32-.04zm1.49-6.84a1.5 1.5 0 0 1-1.23-1.73 1.49 1.49 0 0 1 1.73-1.22 1.5 1.5 0 0 1 1.23 1.73 1.5 1.5 0 0 1-1.48 1.24 1.06 1.06 0 0 1-.25-.02zm1.06-6.92a1.49 1.49 0 0 1-1.33-1.65 1.49 1.49 0 0 1 1.65-1.33 1.49 1.49 0 0 1 1.33 1.65 1.5 1.5 0 0 1-1.49 1.34h-.16zm.63-7a1.51 1.51 0 0 1-1.43-1.57 1.5 1.5 0 0 1 1.57-1.42 1.49 1.49 0 0 1 1.43 1.56 1.5 1.5 0 0 1-1.5 1.43h-.07zm-1.31-8.48a1.5 1.5 0 0 1 1.49-1.51 1.49 1.49 0 0 1 1.51 1.47 1.51 1.51 0 0 1-1.48 1.53 1.51 1.51 0 0 1-1.52-1.46zm-.3-6.89a1.5 1.5 0 0 1 1.39-1.61 1.5 1.5 0 0 1 1.61 1.39 1.5 1.5 0 0 1-1.39 1.6H325a1.5 1.5 0 0 1-1.46-1.35zm-.71-6.87a1.49 1.49 0 0 1 1.28-1.68 1.49 1.49 0 0 1 1.69 1.34 1.5 1.5 0 0 1-1.28 1.69h-.21a1.5 1.5 0 0 1-1.48-1.32zm-1.14-6.8a1.51 1.51 0 0 1 1.18-1.77 1.5 1.5 0 0 1 1.76 1.18 1.5 1.5 0 0 1-1.18 1.76h-.3a1.5 1.5 0 0 1-1.46-1.14zm-1.55-6.73a1.5 1.5 0 0 1 1.07-1.83 1.49 1.49 0 0 1 1.83 1.07 1.51 1.51 0 0 1-1.07 1.84 1.73 1.73 0 0 1-.38.05 1.5 1.5 0 0 1-1.45-1.1zm-2-6.62a1.5 1.5 0 0 1 1-1.89 1.49 1.49 0 0 1 1.89.95 1.51 1.51 0 0 1-.95 1.9 1.58 1.58 0 0 1-.47.07 1.51 1.51 0 0 1-1.44-1zm-2.37-6.48a1.5 1.5 0 0 1 .84-2 1.48 1.48 0 0 1 1.94.83 1.49 1.49 0 0 1-.83 1.95 1.36 1.36 0 0 1-.56.11 1.5 1.5 0 0 1-1.36-.86zm-2.77-6.29a1.5 1.5 0 0 1 .71-2 1.49 1.49 0 0 1 2 .71 1.5 1.5 0 0 1-.71 2 1.48 1.48 0 0 1-.64.14 1.51 1.51 0 0 1-1.36-.85zm-3.15-6.15a1.49 1.49 0 0 1 .59-2 1.5 1.5 0 0 1 2 .58 1.51 1.51 0 0 1-.59 2 1.47 1.47 0 0 1-.73.19 1.49 1.49 0 0 1-1.24-.77zm-3.52-5.93a1.5 1.5 0 0 1 .46-2.08 1.51 1.51 0 0 1 2.07.47 1.51 1.51 0 0 1-.46 2.07 1.57 1.57 0 0 1-.8.23 1.51 1.51 0 0 1-1.24-.69zm-3.89-5.72a1.5 1.5 0 0 1 .34-2.09 1.49 1.49 0 0 1 2.09.33 1.5 1.5 0 0 1-.33 2.1 1.51 1.51 0 0 1-.88.28 1.51 1.51 0 0 1-1.19-.62zm-4.22-5.46a1.5 1.5 0 0 1 .21-2.11 1.5 1.5 0 0 1 2.11.2 1.52 1.52 0 0 1-.21 2.12 1.48 1.48 0 0 1-.95.34 1.51 1.51 0 0 1-1.13-.55z"/></g></g></svg>