<svg id="Web_Designer" data-name="Web Designer" xmlns="http://www.w3.org/2000/svg" viewBox="0 0 1596.4 1002.05">
  <defs>
    <style>
      .cls-1, .cls-17, .cls-7 {
        fill: #f1f2f2;
      }

      .cls-1, .cls-10, .cls-11, .cls-12, .cls-13, .cls-14, .cls-15, .cls-16, .cls-17, .cls-18, .cls-19, .cls-2, .cls-21, .cls-22, .cls-23, .cls-24, .cls-25, .cls-3, .cls-5, .cls-6, .cls-7, .cls-8 {
        stroke: #414042;
        stroke-miterlimit: 10;
      }

      .cls-1, .cls-15, .cls-18, .cls-2, .cls-3, .cls-5 {
        stroke-width: 6px;
      }

      .cls-11, .cls-19, .cls-2, .cls-25 {
        fill: #29ccbc;
      }

      .cls-14, .cls-3, .cls-8 {
        fill: none;
      }

      .cls-20, .cls-4, .cls-9 {
        fill: #414042;
      }

      .cls-5, .cls-6 {
        fill: #fff;
      }

      .cls-11, .cls-12, .cls-13, .cls-14, .cls-16, .cls-6, .cls-7 {
        stroke-width: 3px;
      }

      .cls-10, .cls-8 {
        stroke-width: 4px;
      }

      .cls-9 {
        font-size: 15px;
        font-family: MyriadPro-Regular, Myriad Pro;
      }

      .cls-10, .cls-12 {
        fill: #e6e7e8;
      }

      .cls-13, .cls-22 {
        fill: #bcbec0;
      }

      .cls-15, .cls-16, .cls-24 {
        fill: #a7a9ac;
      }

      .cls-17 {
        stroke-width: 2px;
      }

      .cls-18, .cls-21 {
        fill: #d1d3d4;
      }

      .cls-19, .cls-21, .cls-22, .cls-23, .cls-24 {
        stroke-width: 5px;
      }

      .cls-20 {
        font-size: 87.65px;
        font-family: OpenSans-Bold, Open Sans;
        font-weight: 700;
      }

      .cls-23 {
        fill: #808285;
      }

      .cls-25 {
        stroke-width: 7px;
      }
    </style>
  </defs>
  <title>banner-x</title>
  <g id="DeskTop">
    <path class="cls-1" d="M909.51,1171.92s15.51-10,15.51-16.2v-51.85h108.23v51.85c0,5.11,18.17,16.2,18.17,16.2Z" transform="translate(-221.26 -643.65)"/>
    <rect class="cls-1" x="525.04" y="120.28" width="468.33" height="339.93" rx="24.69" ry="24.69"/>
    <path class="cls-2" d="M1214.63,1049.54V788.63a24.69,24.69,0,0,0-24.69-24.69H771a24.7,24.7,0,0,0-24.7,24.69v260.91Z" transform="translate(-221.26 -643.65)"/>
    <rect class="cls-1" x="549.73" y="148.27" width="418.94" height="235.4"/>
  </g>
  <g id="Coffee">
    <path class="cls-2" d="M427.48,1105.41v64.11A18.45,18.45,0,0,0,445.93,1188h40.13a18.45,18.45,0,0,0,18.45-18.45v-64.11Z" transform="translate(-221.26 -643.65)"/>
    <path class="cls-3" d="M504.51,1122.78c13.84,0,18,5,18,11.07l-3.23,22.3c0,6.11-8.65,11.07-14.76,11.07" transform="translate(-221.26 -643.65)"/>
    <path class="cls-4" d="M467.76,1096a24.09,24.09,0,0,1-4.77-9.81c-2.33-9.25,5.12-14,9.25-21.06,4.3-7.31,1.68-16.92-4.48-22.32-2.41-2.12-6,1.41-3.53,3.54a16.24,16.24,0,0,1,5,8.71c1.87,8.37-7.56,13.1-10.2,20-3.19,8.37-.54,17.78,5.17,24.45,2.1,2.45,5.62-1.1,3.53-3.54Z" transform="translate(-221.26 -643.65)"/>
  </g>
  <g id="Mouse">
    <path class="cls-5" d="M1341.77,1188.42c0-12.83-18.79-23.22-42-23.22s-42,10.39-42,23.22Z" transform="translate(-221.26 -643.65)"/>
    <path class="cls-6" d="M1304.43,1158.81a4.17,4.17,0,0,1,4.16,4.17h0a4.17,4.17,0,0,1-4.16,4.17h-9.26A4.17,4.17,0,0,1,1291,1163h0a4.17,4.17,0,0,1,4.17-4.17Z" transform="translate(-221.26 -643.65)"/>
  </g>
  <polygon id="DesktopStand" class="cls-5" points="1011.07 544.32 507.35 544.32 513.11 528.78 1005.3 528.78 1011.07 544.32"/>
  <g id="Board">
    <polygon class="cls-2" points="1468.03 246.63 1062.74 246.63 1062.74 3 1468.03 3 1468.03 227.45 1468.03 246.63"/>
    <g>
      <rect class="cls-7" x="1178.62" y="68.14" width="66.28" height="73.7"/>
      <line class="cls-8" x1="1187.46" y1="79.81" x2="1236.06" y2="79.81"/>
      <line class="cls-8" x1="1188.7" y1="90.06" x2="1199.3" y2="90.06"/>
      <line class="cls-8" x1="1188.7" y1="107.73" x2="1199.3" y2="107.73"/>
      <line class="cls-8" x1="1188.7" y1="99.78" x2="1232.88" y2="99.78"/>
      <line class="cls-8" x1="1188.7" y1="116.04" x2="1232.88" y2="116.04"/>
      <line class="cls-8" x1="1188.7" y1="123.99" x2="1232.88" y2="123.99"/>
    </g>
    <g>
      <rect class="cls-7" x="1282.36" y="44.1" width="66.28" height="73.7"/>
      <line class="cls-8" x1="1291.2" y1="55.76" x2="1339.8" y2="55.76"/>
      <line class="cls-8" x1="1292.43" y1="66.01" x2="1303.04" y2="66.01"/>
      <line class="cls-8" x1="1292.43" y1="83.69" x2="1303.04" y2="83.69"/>
      <line class="cls-8" x1="1292.43" y1="75.74" x2="1336.62" y2="75.74"/>
      <line class="cls-8" x1="1292.43" y1="91.99" x2="1336.62" y2="91.99"/>
      <line class="cls-8" x1="1292.43" y1="99.94" x2="1336.62" y2="99.94"/>
    </g>
    <g>
      <rect class="cls-7" x="1099.08" y="43.01" width="47.93" height="65.46"/>
      <line class="cls-8" x1="1105.47" y1="53.37" x2="1140.63" y2="53.37"/>
      <line class="cls-8" x1="1106.37" y1="62.47" x2="1134.72" y2="62.47"/>
      <line class="cls-8" x1="1106.37" y1="78.17" x2="1132.8" y2="78.17"/>
      <line class="cls-8" x1="1106.37" y1="71.11" x2="1123.05" y2="71.11"/>
    </g>
    <g>
      <rect class="cls-7" x="1342.82" y="166.03" width="47.93" height="65.46"/>
      <line class="cls-8" x1="1349.21" y1="176.39" x2="1384.36" y2="176.39"/>
      <line class="cls-8" x1="1350.11" y1="185.49" x2="1378.46" y2="185.49"/>
      <line class="cls-8" x1="1350.11" y1="201.19" x2="1376.53" y2="201.19"/>
      <line class="cls-8" x1="1350.11" y1="194.13" x2="1366.79" y2="194.13"/>
    </g>
    <g>
      <rect class="cls-7" x="1389.21" y="39.54" width="47.93" height="65.46"/>
      <line class="cls-8" x1="1395.6" y1="49.9" x2="1430.75" y2="49.9"/>
      <line class="cls-8" x1="1396.49" y1="59" x2="1424.84" y2="59"/>
      <line class="cls-8" x1="1396.49" y1="74.7" x2="1422.92" y2="74.7"/>
      <line class="cls-8" x1="1396.49" y1="67.64" x2="1413.17" y2="67.64"/>
    </g>
    <g>
      <text class="cls-9" transform="translate(1118.65 111.81) rotate(90)">----------</text>
      <text class="cls-9" transform="translate(1207.9 144.81) rotate(90)">---</text>
      <text class="cls-9" transform="translate(1210.79 154.34) rotate(180)">-------------------</text>
    </g>
    <g>
      <text class="cls-9" transform="matrix(0, -1, -1, 0, 1207.9, 66.01)">---------</text>
      <text class="cls-9" transform="matrix(0, -1, -1, 0, 1310.65, 41.41)">---</text>
      <text class="cls-9" transform="matrix(-1, 0, 0, 1, 1314.5, 29.74)">----------------------</text>
    </g>
    <g>
      <text class="cls-9" transform="matrix(0, 1, 1, 0, 1420, 108.46)">------</text>
      <text class="cls-9" transform="matrix(0, 1, 1, 0, 1317.25, 119.78)">---</text>
      <text class="cls-9" transform="matrix(1, 0, 0, -1, 1313.4, 131.46)">----------------------</text>
    </g>
    <text class="cls-9" transform="matrix(0, 1, 1, 0, 1371.19, 135.46)">------</text>
    <g>
      <rect class="cls-10" x="1245.68" y="793.82" width="59.88" height="53.85" transform="translate(20.83 1287.33) rotate(-79.81)"/>
      <line class="cls-8" x1="1038.55" y1="153.46" x2="1077.41" y2="160.44"/>
      <line class="cls-8" x1="1038.06" y1="161.83" x2="1046.54" y2="163.35"/>
      <line class="cls-8" x1="1035.52" y1="175.96" x2="1044" y2="177.49"/>
      <line class="cls-8" x1="1036.67" y1="169.6" x2="1072" y2="175.96"/>
      <line class="cls-8" x1="1034.33" y1="182.61" x2="1069.66" y2="188.96"/>
      <line class="cls-8" x1="1033.19" y1="188.96" x2="1068.52" y2="195.32"/>
    </g>
    <g>
      <rect class="cls-10" x="1639.11" y="869.48" width="53.85" height="73.53" transform="translate(-409.89 -133.87) rotate(-16.48)"/>
      <line class="cls-8" x1="1418.71" y1="244.09" x2="1456.58" y2="232.89"/>
      <line class="cls-8" x1="1422.58" y1="253.61" x2="1453.12" y2="244.58"/>
      <line class="cls-8" x1="1427.58" y1="270.52" x2="1456.05" y2="262.1"/>
      <line class="cls-8" x1="1425.33" y1="262.92" x2="1443.3" y2="257.6"/>
    </g>
  </g>
  <rect class="cls-11" x="601.19" y="187.54" width="98.81" height="164.85"/>
  <rect class="cls-11" x="711.89" y="187.54" width="219.33" height="58.02"/>
  <rect class="cls-12" x="711.89" y="255.24" width="130.54" height="34.2"/>
  <rect class="cls-11" x="711.89" y="302.13" width="219.33" height="10.25"/>
  <rect class="cls-13" x="711.89" y="323.68" width="87.91" height="28.71"/>
  <g id="Mobile">
    <rect class="cls-2" x="63.92" y="384.25" width="101.54" height="155.92"/>
    <rect class="cls-1" x="74.55" y="400.58" width="80.27" height="123.26"/>
    <polyline class="cls-8" points="81.02 487.01 103.69 464.35 123.62 484.27 135.95 471.94 148.36 484.35"/>
    <circle class="cls-14" cx="128.04" cy="450.68" r="11"/>
  </g>
  <g id="Laptop">
    <path class="cls-15" d="M1187.35,351h266a8,8,0,0,1,8,8V521.53a8,8,0,0,1-8,8h-266a8,8,0,0,1-8-8V359A8,8,0,0,1,1187.35,351Z"/>
    <rect class="cls-7" x="1195.6" y="367.08" width="249.52" height="146.41"/>
    <path class="cls-1" d="M1690.6,1187.5H1392.65c-4.11,0-18.12-20.53-13.68-20.53h325.31C1708.72,1167,1694.71,1187.5,1690.6,1187.5Z" transform="translate(-221.26 -643.65)"/>
    <rect class="cls-11" x="1221.91" y="391.11" width="58.96" height="98.36"/>
    <rect class="cls-11" x="1287.95" y="391.11" width="130.86" height="34.62"/>
    <rect class="cls-12" x="1287.95" y="431.5" width="77.89" height="20.41"/>
    <path class="cls-16" d="M1700,1177.23h-312.9a5.09,5.09,0,0,0-3.87,1.8c3.23,4.47,7,8.47,8.78,8.47h298C1692,1187.5,1696.55,1182.37,1700,1177.23Z" transform="translate(-221.26 -643.65)"/>
    <path class="cls-17" d="M1561.89,1168.75a2.76,2.76,0,0,1-2.76,2.76h-35a2.76,2.76,0,0,1-2.75-2.76h0a2.76,2.76,0,0,1,2.75-2.76h35a2.76,2.76,0,0,1,2.76,2.76Z" transform="translate(-221.26 -643.65)"/>
  </g>
  <rect class="cls-5" x="206.89" y="125.35" width="154.4" height="112.26"/>
  <rect class="cls-2" x="206.89" y="110.84" width="154.4" height="18.81"/>
  <g id="RightLeg">
    <path class="cls-18" d="M1639.38,1273.84c2.6,2.27,3.21,5.83,1.36,8l-7.16,8.2c-1.85,2.12-5.46,2-8.06-.28l-96-83.84c-2.6-2.27-3.21-5.83-1.36-7.95l7.16-8.2c1.85-2.12,5.46-2,8.06.27Z" transform="translate(-221.26 -643.65)"/>
    <rect class="cls-18" x="1404.28" y="554.15" width="21.08" height="444.89" rx="5.1" ry="5.1"/>
  </g>
  <g id="LeftLeg">
    <path class="cls-18" d="M383.33,1273.84c-2.61,2.27-3.22,5.83-1.37,8l7.16,8.2c1.85,2.12,5.46,2,8.07-.28l96-83.84c2.6-2.27,3.21-5.83,1.36-7.95l-7.16-8.2c-1.85-2.12-5.46-2-8.07.27Z" transform="translate(-221.26 -643.65)"/>
    <rect class="cls-18" x="154.83" y="554.15" width="21.08" height="444.89" rx="5.1" ry="5.1"/>
  </g>
  <g id="Pencils">
    <g>
      <path class="cls-6" d="M1748,1117.07l9.69,57a2.79,2.79,0,0,1-2.29,3.23l-3.17.54a2.8,2.8,0,0,1-3.23-2.29l-9.7-57C1739,1117,1747.74,1115.54,1748,1117.07Z" transform="translate(-221.26 -643.65)"/>
      <polygon class="cls-6" points="1525.66 472.83 1519.11 473.95 1518.94 463.89 1522.5 463.29 1525.66 472.83"/>
    </g>
    <g>
      <path class="cls-6" d="M1763.75,1097.93v57.8a2.81,2.81,0,0,1-2.81,2.81h-3.21a2.8,2.8,0,0,1-2.8-2.81v-57.8C1754.93,1096.38,1763.75,1096.38,1763.75,1097.93Z" transform="translate(-221.26 -643.65)"/>
      <polygon class="cls-6" points="1541.53 453.52 1534.88 453.52 1536.4 443.57 1540.01 443.57 1541.53 453.52"/>
    </g>
    <g>
      <path class="cls-6" d="M1775.37,1109.61l-7.19,46.87a2.3,2.3,0,0,1-2.62,1.92l-2.6-.4a2.3,2.3,0,0,1-1.93-2.62l7.19-46.87C1768.41,1107.26,1775.56,1108.35,1775.37,1109.61Z" transform="translate(-221.26 -643.65)"/>
      <polygon class="cls-6" points="1553.42 465.22 1548.03 464.39 1550.5 456.52 1553.43 456.97 1553.42 465.22"/>
    </g>
    <path class="cls-19" d="M1781,1133.85v38.86a12.15,12.15,0,0,1-12.14,12.15h-26.42a12.15,12.15,0,0,1-12.15-12.15v-38.86Z" transform="translate(-221.26 -643.65)"/>
  </g>
  <path class="cls-8" d="M555.89,753.75l-51-46.07-50,46.07" transform="translate(-221.26 -643.65)"/>
  <g id="Date">
    <text class="cls-20" transform="translate(234.06 210.33)">20</text>
  </g>
  <rect id="Desk" class="cls-5" x="3" y="544.76" width="1590.4" height="18.78"/>
  <g id="Chear">
    <rect class="cls-21" x="467.08" y="776.24" width="32.84" height="202.71" rx="13.55" ry="13.55"/>
    <path class="cls-22" d="M551.54,1598.46v6.23c0,8.11,6.57,10.16,14.68,10.16,0,0,67.85-25.73,135.64-25.73,93.29,0,144.14,25.73,144.14,25.73,8.11,0,14.69-2,14.68-10.17v-6.22c0-8.11-53.46-35.07-158.83-35.07C607.23,1563.39,551.55,1590.35,551.54,1598.46Z" transform="translate(-221.26 -643.65)"/>
    <rect class="cls-4" x="451.18" y="888.49" width="67.37" height="37.64" rx="13.55" ry="13.55"/>
    <g>
      <path class="cls-23" d="M580.74,1631a11.66,11.66,0,0,1-11.66,11.66H542.35A11.66,11.66,0,0,1,530.69,1631h0a11.66,11.66,0,0,1,11.66-11.67h26.73A11.66,11.66,0,0,1,580.74,1631Z" transform="translate(-221.26 -643.65)"/>
      <path class="cls-24" d="M549.13,1624.64a6,6,0,0,0,6,6h0a6,6,0,0,0,6-6v-21.46a6,6,0,0,0-6-6h0a6,6,0,0,0-6,6Z" transform="translate(-221.26 -643.65)"/>
    </g>
    <g>
      <path class="cls-23" d="M729.78,1631a11.66,11.66,0,0,1-11.66,11.66H691.39A11.66,11.66,0,0,1,679.73,1631h0a11.66,11.66,0,0,1,11.66-11.67h26.73A11.66,11.66,0,0,1,729.78,1631Z" transform="translate(-221.26 -643.65)"/>
      <path class="cls-24" d="M698.17,1624.64a6,6,0,0,0,6,6h0a6,6,0,0,0,6-6v-21.46a6,6,0,0,0-6-6h0a6,6,0,0,0-6,6Z" transform="translate(-221.26 -643.65)"/>
    </g>
    <g>
      <path class="cls-23" d="M885.73,1631a11.67,11.67,0,0,1-11.67,11.66H847.34A11.66,11.66,0,0,1,835.67,1631h0a11.66,11.66,0,0,1,11.67-11.67h26.72A11.67,11.67,0,0,1,885.73,1631Z" transform="translate(-221.26 -643.65)"/>
      <path class="cls-24" d="M854.11,1624.64a6,6,0,0,0,6,6h0a6,6,0,0,0,6-6v-21.46a6,6,0,0,0-6-6h0a6,6,0,0,0-6,6Z" transform="translate(-221.26 -643.65)"/>
    </g>
    <path class="cls-4" d="M758.58,1424c0,8.52-23.5,15.43-53.22,15.43s-54.43-6.91-54.43-15.43,24.7-15.43,54.43-15.43S758.58,1415.51,758.58,1424Z" transform="translate(-221.26 -643.65)"/>
    <g>
      <path class="cls-4" d="M572.51,1397.69c1.64-.81,2.47-4.27,2-6.63,0,0-12-2.45-14-13.91-1.48-8.54-.48-34.66-.48-34.66a4.33,4.33,0,0,0-4.4-4.28h0a4.33,4.33,0,0,0-4.28,4.4s-.71,21.7.48,35.42C553,1390.81,572.51,1397.69,572.51,1397.69Z" transform="translate(-221.26 -643.65)"/>
      <path class="cls-15" d="M542.63,1296.43c-1.27-15.38,30.75-14.86,41.54-12.53,2.52.55,9.11,9.94-15.94,15.73-3.17.73-1.13,33.68-1.13,33.68a12.23,12.23,0,0,1-12.23,12.23h0a12.23,12.23,0,0,1-12.24-12.23Z" transform="translate(-221.26 -643.65)"/>
    </g>
    <g>
      <path class="cls-4" d="M832.88,1397.69c-1.63-.81-2.46-4.27-2-6.63,0,0,12-2.45,14-13.91,1.48-8.54.48-34.66.48-34.66a4.33,4.33,0,0,1,4.4-4.28h0a4.33,4.33,0,0,1,4.28,4.4s.71,21.7-.48,35.42C852.44,1390.81,832.88,1397.69,832.88,1397.69Z" transform="translate(-221.26 -643.65)"/>
      <path class="cls-15" d="M862.76,1296.43c1.28-15.38-30.74-14.86-41.53-12.53-2.52.55-9.11,9.94,15.94,15.73,3.17.73,1.13,33.68,1.13,33.68a12.23,12.23,0,0,0,12.23,12.23h0a12.22,12.22,0,0,0,12.23-12.23Z" transform="translate(-221.26 -643.65)"/>
    </g>
    <path class="cls-2" d="M853.8,1392.42c0,17.67-65,32-147.31,32s-150.78-14.32-150.78-32,68.47-32,150.78-32S853.8,1374.75,853.8,1392.42Z" transform="translate(-221.26 -643.65)"/>
    <path class="cls-25" d="M847.4,1199.34c0,95.82-68.53,209.26-147.31,209.26s-138-113.44-138-209.26S626,1066.11,704.76,1066.11,847.4,1103.52,847.4,1199.34Z" transform="translate(-221.26 -643.65)"/>
  </g>
  <line id="Floor" class="cls-3" x1="0.2" y1="999.05" x2="1596.2" y2="999.05"/>
</svg>
