<svg xmlns="http://www.w3.org/2000/svg" viewBox="0 0 47.79 35.96"><defs><style>.cls-1{fill:#2a3052;}</style></defs><title>Bird1</title><g id="Layer_2" data-name="Layer 2"><g id="Layer_1-2" data-name="Layer 1"><path class="cls-1" d="M17.69,23.24C12.06,22.89,8.33,33.07,1.84,36,1.71,35.06.49,35.18,0,34.6c1.65-5.71,7.86-10,8.84-14.21-.86.16-1.24.84-2.56.51l.37-1.14L5.73,19C15,11.16,29.85-6,43.9,2.16l3.89.67-4.2,1.44C36.16,11,32,22.05,24.48,23.35A31.6,31.6,0,0,1,17.69,23.24ZM40.13,2.39a1.06,1.06,0,1,0-.27,2.11,1.06,1.06,0,0,0,.27-2.11ZM25,18.7c7.57-.44,8.3-9,4.25-11s-13.89,9.72-13.89,9.72S17.44,19.14,25,18.7Z"/><path class="cls-1" d="M24.17,28.47a.41.41,0,0,1,.29-.5A3.82,3.82,0,0,0,26.1,26.8a4.9,4.9,0,0,1,2-1.4.4.4,0,0,1,.51.27.41.41,0,0,1-.26.51,4.39,4.39,0,0,0-1.63,1.19,4.39,4.39,0,0,1-2,1.41.25.25,0,0,0-.12,0A.48.48,0,0,1,24.17,28.47Z"/><path class="cls-1" d="M29.28,27.57a.57.57,0,0,0,.25-.06.55.55,0,0,0,.27-.73,2.83,2.83,0,0,0-1.39-1.49.57.57,0,0,0-.73.27.56.56,0,0,0,.28.73,1.76,1.76,0,0,1,.83.95A.59.59,0,0,0,29.28,27.57Z"/><path class="cls-1" d="M28.16,26.28a.46.46,0,0,0,.2,0,.49.49,0,0,0,.27-.64,6.22,6.22,0,0,0-1.19-1.75,5.46,5.46,0,0,1-1-1.45.45.45,0,0,0-.61-.27.51.51,0,0,0-.29.63,6.58,6.58,0,0,0,1.18,1.74,5.06,5.06,0,0,1,1,1.47A.48.48,0,0,0,28.16,26.28Z"/><path class="cls-1" d="M21.46,28.9a.25.25,0,0,0,.12,0,4.21,4.21,0,0,0,2-1.39,4.39,4.39,0,0,1,1.63-1.2.41.41,0,0,0,.27-.51.42.42,0,0,0-.52-.27,4.82,4.82,0,0,0-2,1.41,3.82,3.82,0,0,1-1.63,1.16.41.41,0,0,0,.08.81Z"/><path class="cls-1" d="M26.19,27.68a.43.43,0,0,0,.25-.05.55.55,0,0,0,.28-.72,2.87,2.87,0,0,0-1.4-1.5.55.55,0,0,0-.72.28.56.56,0,0,0,.27.74,1.62,1.62,0,0,1,.84.94A.56.56,0,0,0,26.19,27.68Z"/><path class="cls-1" d="M25.08,26.4a.33.33,0,0,0,.19,0,.49.49,0,0,0,.28-.62A6.28,6.28,0,0,0,24.36,24a5.28,5.28,0,0,1-1-1.45.46.46,0,0,0-.61-.28.52.52,0,0,0-.29.63,6.86,6.86,0,0,0,1.19,1.74,5.12,5.12,0,0,1,1,1.47A.46.46,0,0,0,25.08,26.4Z"/></g></g></svg>