<svg xmlns="http://www.w3.org/2000/svg" viewBox="0 0 48.51 24.66"><defs><style>.cls-1{fill:#2a3052;}</style></defs><title>Bird2</title><g id="Layer_2" data-name="Layer 2"><g id="Layer_1-2" data-name="Layer 1"><path class="cls-1" d="M24.72,18.41C17.9,18.85,11.9,10.06,4,5.75L0,5.37,3.26,4C13.83-6.17,30.45,5.74,40.2,10.62l-.64.88.57.92c-1.08.57-1.56.05-2.35.1,1.75,3.48,8.08,5.92,10.73,10.57-.3.6-1.4.76-1.32,1.57-6.29-1.16-11.7-9.28-16.55-7.79A27.75,27.75,0,0,1,24.72,18.41ZM6.05,4.61a1,1,0,1,0,.56-1.24A1,1,0,0,0,6.05,4.61Zm25.4,6.71S20.38,3.14,17.25,5.75s-.68,9.91,6,8.7S31.45,11.32,31.45,11.32Z"/><path class="cls-1" d="M25.8,23.18a.18.18,0,0,0-.1,0,4,4,0,0,1-2.06-.81,3.86,3.86,0,0,0-1.67-.7.37.37,0,0,1-.34-.39A.36.36,0,0,1,22,21a4.37,4.37,0,0,1,2,.81,3.49,3.49,0,0,0,1.68.67.38.38,0,0,1,.36.38A.4.4,0,0,1,25.8,23.18Z"/><path class="cls-1" d="M21.77,22.72a1.56,1.56,0,0,1,.53-1,.5.5,0,1,0-.61-.78,2.55,2.55,0,0,0-.9,1.59.5.5,0,0,0,.39.58.45.45,0,0,0,.23,0A.51.51,0,0,0,21.77,22.72Z"/><path class="cls-1" d="M22.42,21.4a4.77,4.77,0,0,1,.6-1.51,5.7,5.7,0,0,0,.67-1.77.45.45,0,0,0-.38-.49.42.42,0,0,0-.49.37,4.85,4.85,0,0,1-.58,1.48,5.52,5.52,0,0,0-.67,1.78.44.44,0,0,0,.37.5.55.55,0,0,0,.18,0A.42.42,0,0,0,22.42,21.4Z"/><path class="cls-1" d="M28.8,22.28a.36.36,0,0,0-.36-.38,3.49,3.49,0,0,1-1.68-.67,4.32,4.32,0,0,0-2-.82.39.39,0,0,0-.4.34.39.39,0,0,0,.35.4,4,4,0,0,1,1.68.7,3.81,3.81,0,0,0,2.05.8l.1,0A.39.39,0,0,0,28.8,22.28Z"/><path class="cls-1" d="M24.49,22.18a1.5,1.5,0,0,1,.54-1,.51.51,0,0,0,.08-.7.49.49,0,0,0-.69-.09,2.53,2.53,0,0,0-.9,1.6.48.48,0,0,0,.39.57.36.36,0,0,0,.23,0A.49.49,0,0,0,24.49,22.18Z"/><path class="cls-1" d="M25.15,20.85a4.63,4.63,0,0,1,.6-1.51,5.59,5.59,0,0,0,.66-1.77.46.46,0,0,0-.38-.49.43.43,0,0,0-.48.38A4.68,4.68,0,0,1,25,19a5.49,5.49,0,0,0-.67,1.78.44.44,0,0,0,.37.48.36.36,0,0,0,.18,0A.42.42,0,0,0,25.15,20.85Z"/></g></g></svg>