<svg xmlns="http://www.w3.org/2000/svg" viewBox="0 0 91 260"><defs><style>.cls-1{fill:#2a3052;}.cls-2,.cls-3{fill:none;stroke:#2a3052;stroke-miterlimit:10;}.cls-2{stroke-width:11px;}.cls-3{stroke-width:10px;}</style></defs><title>Building2</title><g id="Layer_2" data-name="Layer 2"><g id="Layer_1-2" data-name="Layer 1"><path class="cls-1" d="M25.53,114.69a4.33,4.33,0,0,0,4.59-4.59V95.88a4.33,4.33,0,0,0-4.59-4.58A4.32,4.32,0,0,0,21,95.88V110.1A4.93,4.93,0,0,0,25.53,114.69Z"/><path class="cls-1" d="M45.72,114.69a4.34,4.34,0,0,0,4.59-4.59V95.88a4.33,4.33,0,0,0-4.59-4.58,4.33,4.33,0,0,0-4.59,4.58V110.1A4.93,4.93,0,0,0,45.72,114.69Z"/><path class="cls-1" d="M65.9,114.69a4.34,4.34,0,0,0,4.59-4.59V95.88a4.59,4.59,0,0,0-9.18,0V110.1A4.94,4.94,0,0,0,65.9,114.69Z"/><path class="cls-1" d="M25.53,151.85a4.34,4.34,0,0,0,4.59-4.59V133a4.34,4.34,0,0,0-4.59-4.59A4.33,4.33,0,0,0,21,133v14.22A4.6,4.6,0,0,0,25.53,151.85Z"/><path class="cls-1" d="M45.72,151.85a4.34,4.34,0,0,0,4.59-4.59V133a4.34,4.34,0,0,0-4.59-4.59A4.34,4.34,0,0,0,41.13,133v14.22A4.6,4.6,0,0,0,45.72,151.85Z"/><path class="cls-1" d="M65.9,151.85a4.34,4.34,0,0,0,4.59-4.59V133a4.59,4.59,0,1,0-9.18,0v14.22A4.61,4.61,0,0,0,65.9,151.85Z"/><path class="cls-1" d="M25.53,189.46a4.33,4.33,0,0,0,4.59-4.59V170.65a4.33,4.33,0,0,0-4.59-4.58A4.32,4.32,0,0,0,21,170.65v14.22A4.93,4.93,0,0,0,25.53,189.46Z"/><path class="cls-1" d="M45.72,189.46a4.34,4.34,0,0,0,4.59-4.59V170.65a4.33,4.33,0,0,0-4.59-4.58,4.33,4.33,0,0,0-4.59,4.58v14.22A4.93,4.93,0,0,0,45.72,189.46Z"/><path class="cls-1" d="M65.9,189.46a4.34,4.34,0,0,0,4.59-4.59V170.65a4.59,4.59,0,0,0-9.18,0v14.22A4.94,4.94,0,0,0,65.9,189.46Z"/><path class="cls-1" d="M25.53,226.62A4.34,4.34,0,0,0,30.12,222V207.81a4.34,4.34,0,0,0-4.59-4.59A4.33,4.33,0,0,0,21,207.81V222A4.6,4.6,0,0,0,25.53,226.62Z"/><path class="cls-1" d="M45.72,226.62A4.34,4.34,0,0,0,50.31,222V207.81a4.34,4.34,0,0,0-4.59-4.59,4.34,4.34,0,0,0-4.59,4.59V222A4.6,4.6,0,0,0,45.72,226.62Z"/><path class="cls-1" d="M65.9,226.62A4.34,4.34,0,0,0,70.49,222V207.81a4.59,4.59,0,1,0-9.18,0V222A4.61,4.61,0,0,0,65.9,226.62Z"/><path class="cls-2" d="M5.5,77.38C5.5,72.77,10,69,15.5,69h60c5.5,0,10,3.77,10,8.38V260"/><path class="cls-3" d="M22,63.5V50.6A8.55,8.55,0,0,1,30.45,42h29.6a8.55,8.55,0,0,1,8.45,8.6V63.5"/><path class="cls-3" d="M34,38.5V31c0-2.75,1.92-5,4.27-5h15c2.35,0,4.27,2.25,4.27,5v7.5"/><rect class="cls-1" x="40.5" width="8" height="25" rx="4" ry="4"/></g></g></svg>