<svg xmlns="http://www.w3.org/2000/svg" viewBox="0 0 57.74 154.3"><defs><style>.cls-1,.cls-2{fill:#2a3052;}.cls-2{stroke:#2a3052;stroke-miterlimit:10;}</style></defs><title>Building4- om the right side of the window</title><g id="Layer_2" data-name="Layer 2"><g id="Layer_1-2" data-name="Layer 1"><rect class="cls-1" x="24.37" y="-18.88" width="9" height="59" rx="4" ry="4" transform="translate(32.24 -19.96) rotate(76.09)"/><path class="cls-2" d="M37.55,150.49v-9.36c0-1.83,1.83-3.31,4.1-3.31s4.11,1.48,4.11,3.31v9.36c0,1.83-1.84,3.31-4.11,3.31S37.55,152.32,37.55,150.49Zm0-22.59V114.68c0-1.82,1.83-3.3,4.1-3.3s4.11,1.48,4.11,3.3V127.9c0,1.83-1.84,3.31-4.11,3.31S37.55,129.73,37.55,127.9Zm0-26.44V88.24c0-1.83,1.83-3.3,4.1-3.3s4.11,1.47,4.11,3.3v13.22c0,1.83-1.84,3.31-4.11,3.31S37.55,103.29,37.55,101.46Zm0-26.44V61.8c0-1.83,1.83-3.31,4.1-3.31S45.76,60,45.76,61.8V75c0,1.83-1.84,3.3-4.11,3.3S37.55,76.85,37.55,75Zm0-26.44V35.36c0-1.83,1.83-3.31,4.1-3.31s4.11,1.48,4.11,3.31V48.58c0,1.82-1.84,3.3-4.11,3.3S37.55,50.4,37.55,48.58Z"/></g></g></svg>