<svg xmlns="http://www.w3.org/2000/svg" viewBox="0 0 91 193.5"><defs><style>.cls-1{fill:none;stroke-width:11px;}.cls-1,.cls-2{stroke:#2a3052;stroke-miterlimit:10;}.cls-2{fill:#2a3052;}</style></defs><title>Building 3</title><g id="Layer_2" data-name="Layer 2"><g id="Layer_1-2" data-name="Layer 1"><path class="cls-1" d="M5.5,93.16V12.76c0-4,4.5-7.26,10-7.26h60c5.5,0,10,3.27,10,7.26V193.5"/><path class="cls-2" d="M51.91,144.68v-9.37c0-1.83,1.83-3.3,4.1-3.3s4.11,1.47,4.11,3.3v9.37c0,1.82-1.84,3.3-4.11,3.3S51.91,146.5,51.91,144.68Zm0-22.59V108.87c0-1.83,1.83-3.31,4.1-3.31s4.11,1.48,4.11,3.31v13.22c0,1.83-1.84,3.31-4.11,3.31S51.91,123.92,51.91,122.09Zm0-26.44V82.43c0-1.83,1.83-3.31,4.1-3.31s4.11,1.48,4.11,3.31V95.65c0,1.83-1.84,3.3-4.11,3.3S51.91,97.48,51.91,95.65Zm0-26.44V56c0-1.82,1.83-3.3,4.1-3.3s4.11,1.48,4.11,3.3V69.21c0,1.82-1.84,3.3-4.11,3.3S51.91,71,51.91,69.21Zm0-26.45V29.54c0-1.83,1.83-3.3,4.1-3.3s4.11,1.47,4.11,3.3V42.76c0,1.83-1.84,3.31-4.11,3.31S51.91,44.59,51.91,42.76Z"/><path class="cls-2" d="M23.85,95.65V82.43c0-1.83,1.84-3.31,4.11-3.31s4.1,1.48,4.1,3.31V95.65c0,1.83-1.83,3.3-4.1,3.3S23.85,97.48,23.85,95.65Zm0-26.44V56c0-1.82,1.84-3.3,4.11-3.3s4.1,1.48,4.1,3.3V69.21c0,1.82-1.83,3.3-4.1,3.3S23.85,71,23.85,69.21Zm0-26.45V29.54c0-1.83,1.84-3.3,4.11-3.3s4.1,1.47,4.1,3.3V42.76c0,1.83-1.83,3.31-4.1,3.31S23.85,44.59,23.85,42.76Z"/></g></g></svg>