<svg xmlns="http://www.w3.org/2000/svg" viewBox="0 0 86.74 79.51"><defs><style>.cls-1{fill:#2a3052;}</style></defs><title>Cactus Plamt</title><g id="Layer_2" data-name="Layer 2"><g id="Layer_1-2" data-name="Layer 1"><path class="cls-1" d="M72.32,79.51H58.66L61,67.86a33.21,33.21,0,0,0-2.73-24.17C54,36,47.33,31.36,40.46,31.36S26.94,36,22.67,43.69a33.23,33.23,0,0,0-2.73,24.18L22,79.51H8.38L6.27,71.42a46.83,46.83,0,0,1,4.05-34.56C17.1,24.58,28.37,17.24,40.46,17.24s23.35,7.34,30.13,19.62a46.83,46.83,0,0,1,4,34.56Z"/><rect class="cls-1" x="26.32" y="-0.61" width="13.18" height="35.97" rx="6.59" ry="6.59" transform="translate(-3.84 11.5) rotate(-18.75)"/><rect class="cls-1" x="8.44" y="14.45" width="13.18" height="35.97" rx="6.59" ry="6.59" transform="translate(-19.1 21.81) rotate(-47.85)"/><rect class="cls-1" x="63.97" y="40.72" width="13.18" height="32.37" rx="6.59" ry="6.59" transform="translate(13.65 127.46) rotate(-90)"/></g></g></svg>