<svg id="Layer_1" data-name="Layer 1" xmlns="http://www.w3.org/2000/svg" viewBox="0 0 512 476.69">
  <defs>
    <style>
      .cls-1 {
        fill: #38454f;
      }

      .cls-2 {
        fill: #e8edee;
      }

      .cls-3 {
        fill: #b0b6bb;
      }

      .cls-4 {
        fill: #25ae88;
      }

      .cls-5 {
        fill: #dd691d;
      }

      .cls-6 {
        fill: #ecba16;
      }
    </style>
  </defs>
  <title>screen3</title>
  <g>
    <path class="cls-1" d="M512,317.79H0V48.55a30.9,30.9,0,0,1,30.9-30.9H481.1A30.9,30.9,0,0,1,512,48.55V317.79Z" transform="translate(0 -17.65)"/>
    <path class="cls-2" d="M361.93,494.35H150.07A35.31,35.31,0,0,1,185.38,459H326.62a35.31,35.31,0,0,1,35.31,35.31" transform="translate(0 -17.65)"/>
    <polygon class="cls-3" points="317.79 441.38 194.21 441.38 211.86 370.76 300.14 370.76 317.79 441.38"/>
    <path class="cls-2" d="M481.1,388.41H30.9A30.89,30.89,0,0,1,0,357.52V317.79H512v39.73a30.89,30.89,0,0,1-30.9,30.89" transform="translate(0 -17.65)"/>
    <g>
      <path class="cls-4" d="M291.31,291.31a8.83,8.83,0,0,1-8.83-8.83V256a8.83,8.83,0,1,1,17.66,0v26.48a8.83,8.83,0,0,1-8.83,8.83" transform="translate(0 -17.65)"/>
      <path class="cls-4" d="M326.62,291.31a8.83,8.83,0,0,1-8.83-8.83V220.69a8.83,8.83,0,1,1,17.66,0v61.79a8.83,8.83,0,0,1-8.83,8.83" transform="translate(0 -17.65)"/>
      <path class="cls-4" d="M361.93,291.31a8.83,8.83,0,0,1-8.83-8.83V238.34a8.83,8.83,0,0,1,17.66,0v44.14a8.83,8.83,0,0,1-8.83,8.83" transform="translate(0 -17.65)"/>
      <path class="cls-4" d="M397.24,291.31a8.83,8.83,0,0,1-8.83-8.83V176.55a8.83,8.83,0,1,1,17.66,0V282.48a8.83,8.83,0,0,1-8.83,8.83" transform="translate(0 -17.65)"/>
      <path id="MyTestPath" class="cls-4" d="M432.55,291.31a8.83,8.83,0,0,1-8.83-8.83V211.86a8.83,8.83,0,1,1,17.66,0v70.62a8.83,8.83,0,0,1-8.83,8.83" transform="translate(0 -17.65)"/>
    </g>
    <path class="cls-5" d="M238.35,163.31a92.7,92.7,0,1,1-92.7-92.69,92.69,92.69,0,0,1,92.7,92.69" transform="translate(0 -17.65)"/>
    <path class="cls-6" d="M141.36,70.72l-.12.12V167.4a.33.33,0,0,0,.33.33h96.55l.12-.13a92.68,92.68,0,0,0-96.88-96.88" transform="translate(0 -17.65)"/>
    <g id="sash">
      <path class="cls-5" d="M388.41,114.76H317.79a8.83,8.83,0,0,1,0-17.66h70.62a8.83,8.83,0,0,1,0,17.66" transform="translate(0 -17.65)"/>
      <path class="cls-5" d="M432.55,114.76a9.28,9.28,0,0,1-6.27-2.56,13.47,13.47,0,0,1-1-1.32,6.59,6.59,0,0,1-.8-1.59,5.83,5.83,0,0,1-.53-1.59,13.11,13.11,0,0,1-.18-1.77,12.82,12.82,0,0,1,.18-1.76,5.83,5.83,0,0,1,.53-1.59,6.59,6.59,0,0,1,.8-1.59,13.55,13.55,0,0,1,1-1.33,9.26,9.26,0,0,1,12.54,0,9,9,0,0,1,0,12.54,9.28,9.28,0,0,1-6.27,2.56" transform="translate(0 -17.65)"/>
      <path class="cls-5" d="M432.55,70.62H406.07a8.83,8.83,0,1,1,0-17.65h26.48a8.83,8.83,0,1,1,0,17.65" transform="translate(0 -17.65)"/>
      <path class="cls-5" d="M335.45,70.62H317.79a8.83,8.83,0,1,1,0-17.65h17.66a8.83,8.83,0,1,1,0,17.65" transform="translate(0 -17.65)"/>
      <path class="cls-5" d="M370.76,70.62a8.86,8.86,0,0,1-6.27-15.09,9.05,9.05,0,0,1,2.91-1.86A8.82,8.82,0,0,1,377,55.53a8.95,8.95,0,0,1,0,12.53,9.3,9.3,0,0,1-6.27,2.56" transform="translate(0 -17.65)"/>
    </g>
  </g>
</svg>
