<svg xmlns="http://www.w3.org/2000/svg" viewBox="0 0 196.89 189.36"><defs><style>.cls-1{fill:#2a3052;}</style></defs><title>Stool</title><g id="Layer_2" data-name="Layer 2"><g id="Layer_1-2" data-name="Layer 1"><path class="cls-1" d="M166.6,0H30.29a30.29,30.29,0,0,0,0,60.58H90.87v86L27.19,174.85a7.58,7.58,0,1,0,6.13,13.86l65.12-29,65.05,28.92a7.58,7.58,0,1,0,6.14-13.86L106,146.53V60.58H166.6A30.29,30.29,0,0,0,166.6,0Zm0,45.44H30.29a15.15,15.15,0,0,1,0-30.29H166.6a15.15,15.15,0,0,1,0,30.29Z"/></g></g></svg>