<svg xmlns="http://www.w3.org/2000/svg" viewBox="0 0 95.03 95.41"><defs><style>.cls-1{fill:#2a3052;}</style></defs><title>Sun part2</title><g id="Layer_2" data-name="Layer 2"><g id="Layer_1-2" data-name="Layer 1"><path class="cls-1" d="M47.32,20.18a4.33,4.33,0,0,0,4.59-4.58v-11A4.34,4.34,0,0,0,47.32,0a4.34,4.34,0,0,0-4.59,4.59v11A4.6,4.6,0,0,0,47.32,20.18Z"/><path class="cls-1" d="M61.08,23.85a4.13,4.13,0,0,0,2.29.46A5.49,5.49,0,0,0,67.5,22L73,12.39A4.72,4.72,0,1,0,64.75,7.8l-5.5,9.63A4.63,4.63,0,0,0,61.08,23.85Z"/><path class="cls-1" d="M71.17,34a4.84,4.84,0,0,0,4.13,2.29,4.1,4.1,0,0,0,2.29-.46l9.64-5.5a5.09,5.09,0,0,0,1.83-6.43A5.07,5.07,0,0,0,82.64,22L73,27.52A4.32,4.32,0,0,0,71.17,34Z"/><path class="cls-1" d="M74.84,47.25a4.94,4.94,0,0,0,4.59,4.59h11a4.59,4.59,0,0,0,0-9.18h-11A4.6,4.6,0,0,0,74.84,47.25Z"/><path class="cls-1" d="M85.39,72.94a4.81,4.81,0,0,0,4.13-2.3,4.64,4.64,0,0,0-1.83-6.42l-9.64-5.5A4.72,4.72,0,1,0,73.47,67l9.63,5.51A3.43,3.43,0,0,0,85.39,72.94Z"/><path class="cls-1" d="M66.13,86.7A4.81,4.81,0,0,0,70.25,89a3.45,3.45,0,0,0,2.3-.46,4.51,4.51,0,0,0,1.37-6.42l-6-9.63a4.64,4.64,0,1,0-7.8,5Z"/><path class="cls-1" d="M48.24,75.23a4.59,4.59,0,0,0-4.59,4.59l.46,11a4.93,4.93,0,0,0,4.58,4.58h0a4.59,4.59,0,0,0,4.59-4.58V79.36C52.82,77.07,51,74.77,48.24,75.23Z"/><path class="cls-1" d="M25.3,89.91a3.43,3.43,0,0,0,2.29.46,4.81,4.81,0,0,0,4.13-2.3l5.05-9.63a4.72,4.72,0,0,0-8.26-4.59l-5,10.1C22.09,85.78,23,88.53,25.3,89.91Z"/><path class="cls-1" d="M24.38,62.39A4.5,4.5,0,0,0,18,61L8.79,67A4.51,4.51,0,0,0,7.41,73.4a4.69,4.69,0,0,0,3.67,2.29,3.49,3.49,0,0,0,2.29-.92l9.18-6A4.31,4.31,0,0,0,24.38,62.39Z"/><path class="cls-1" d="M4.2,54.59h0l11.47-.46a4,4,0,0,0,4.13-4.59,4,4,0,0,0-4.59-4.13l-11,.46A4,4,0,0,0,.07,50.46,4.12,4.12,0,0,0,4.2,54.59Z"/><path class="cls-1" d="M7,32.57l10.09,5a3.51,3.51,0,0,0,2.3.45,4.82,4.82,0,0,0,4.13-2.29c.91-2.29.45-5.05-1.84-6L11.08,24.31c-2.29-.92-5-.46-6,1.84A4.64,4.64,0,0,0,7,32.57Z"/><path class="cls-1" d="M25.76,23.39a4.17,4.17,0,0,0,3.67,1.84,6.5,6.5,0,0,0,2.75-.92,4.52,4.52,0,0,0,1.38-6.42l-6-9.17a4.5,4.5,0,0,0-6.42-1.38,4.51,4.51,0,0,0-1.37,6.42Z"/></g></g></svg>