<svg xmlns="http://www.w3.org/2000/svg" viewBox="0 0 67.36 98.23"><defs><style>.cls-1{fill:#2a3052;stroke:#2a3052;stroke-miterlimit:10;}</style></defs><title>Tree4- right</title><g id="Layer_2" data-name="Layer 2"><g id="Layer_1-2" data-name="Layer 1"><path class="cls-1" d="M29.58,50.63c0-1.83,1.83-3.31,4.1-3.31,13.77,0,25-9,25-20.1s-11.2-20.11-25-20.11-25,9-25,20.11c0,7.09,4.5,13.52,12,17.2,1.94.95,2.56,3,1.38,4.54a4.71,4.71,0,0,1-5.64,1.12C6.48,45.19.5,36.64.5,27.22.5,12.49,15.39.5,33.68.5s33.18,12,33.18,26.72S52,53.93,33.68,53.93C31.41,53.93,29.58,52.46,29.58,50.63Z"/><path class="cls-1" d="M29.58,94.42V50.63c0-1.83,1.83-3.31,4.1-3.31s4.11,1.48,4.11,3.31V94.42c0,1.83-1.84,3.31-4.11,3.31S29.58,96.25,29.58,94.42Z"/></g></g></svg>