<svg xmlns="http://www.w3.org/2000/svg" viewBox="0 0 538.14 18.35"><defs><style>.cls-1{fill:#2a3052;}</style></defs><title>Water1</title><g id="Layer_2" data-name="Layer 2"><g id="Layer_1-2" data-name="Layer 1"><path class="cls-1" d="M4.59,9.17c6.42,0,9.63,1.84,13.3,4.13,4.13,2.3,8.72,5.05,17.89,5.05S49.54,15.6,53.67,13.3C57.34,11,60.55,9.17,67,9.17S76.61,11,80.28,13.3c4.12,2.3,8.71,5.05,17.89,5.05s13.76-2.75,17.89-5.05c3.67-2.29,6.88-4.13,13.3-4.13S139,11,142.66,13.3c4.13,2.3,8.72,5.05,17.89,5.05s13.76-2.75,17.89-5.05c3.67-2.29,6.88-4.13,13.31-4.13s9.63,1.84,13.3,4.13c4.13,2.3,8.71,5.05,17.89,5.05s13.76-2.75,17.89-5.05c3.67-2.29,6.88-4.13,13.3-4.13s9.64,1.84,13.31,4.13c4.12,2.3,8.71,5.05,17.89,5.05s13.76-2.75,17.89-5.05c3.67-2.29,6.88-4.13,13.3-4.13s9.63,1.84,13.3,4.13c4.13,2.3,8.72,5.05,17.89,5.05a4.34,4.34,0,0,0,4.59-4.59,4.34,4.34,0,0,0-4.59-4.59c-6.42,0-9.63-1.83-13.3-4.12-4.13-2.3-8.72-5-17.89-5s-13.76,2.75-17.89,5.05c-3.67,2.29-6.88,4.12-13.3,4.12S275.69,7.34,272,5.05c-4.13-2.3-8.71-5-17.89-5s-13.76,2.75-17.89,5.05c-3.67,2.29-6.88,4.12-13.3,4.12s-9.63-1.83-13.3-4.12c-4.13-2.3-8.72-5-17.89-5S178,2.75,173.86,5.05c-3.67,2.29-6.89,4.12-13.31,4.12s-9.63-1.83-13.3-4.12c-4.13-2.3-8.72-5-17.89-5S115.6,2.75,111.47,5.05c-3.67,2.29-6.88,4.12-13.3,4.12S88.53,7.34,84.86,5.05C80.74,2.75,76.15,0,67,0S53.21,2.75,49.08,5.05c-3.67,2.29-6.88,4.12-13.3,4.12s-9.63-1.83-13.3-4.12c-4.13-2.3-8.72-5-17.89-5A4.33,4.33,0,0,0,0,4.59,4.33,4.33,0,0,0,4.59,9.17Z"/><path class="cls-1" d="M534.94,9.17c-6.42,0-9.63-1.83-13.3-4.12-4.13-2.3-8.72-5-17.89-5S490,2.75,485.86,5.05c-3.67,2.29-6.89,4.12-13.31,4.12s-9.63-1.83-13.3-4.12c-4.13-2.3-8.72-5-17.89-5S427.6,2.75,423.47,5.05c-3.67,2.29-6.88,4.12-13.3,4.12s-9.64-1.83-13.31-4.12c-4.12-2.3-8.71-5-17.89-5s-13.76,2.75-17.89,5.05c-3.67,2.29-6.88,4.12-13.3,4.12s-9.63-1.83-13.3-4.12c-4.11-2.29-8.67-5-17.74-5A4.7,4.7,0,0,0,312,4.73a4.32,4.32,0,0,0,4.59,4.44c6.42,0,9.63,1.84,13.3,4.13,4.13,2.3,8.72,5.05,17.89,5.05s13.76-2.75,17.89-5.05c3.67-2.29,6.88-4.13,13.3-4.13s9.64,1.84,13.31,4.13c4.12,2.3,8.71,5.05,17.89,5.05s13.76-2.75,17.89-5.05c3.67-2.29,6.88-4.13,13.3-4.13S451,11,454.66,13.3c4.13,2.3,8.72,5.05,17.89,5.05s13.76-2.75,17.89-5.05c3.67-2.29,6.88-4.13,13.31-4.13s9.63,1.84,13.3,4.13c4.13,2.3,8.71,5.05,17.89,5.05l.12-.05a4.89,4.89,0,0,0-.12-9.13Z"/></g></g></svg>