<svg xmlns="http://www.w3.org/2000/svg" viewBox="0 0 164.644 228.896">
  <defs>
    <style>
      .cls-1 {
        fill: #2e8836;
      }

      .cls-1, .cls-2, .cls-3, .cls-4 {
        stroke: #2a3052;
        stroke-miterlimit: 10;
        stroke-width: 3px;
      }

      .cls-2 {
        fill: #f2f2f2;
      }

      .cls-3 {
        fill: #ea9f6c;
      }

      .cls-4 {
        fill: #ce7c3e;
      }
    </style>
  </defs>
  <g id="cactus" transform="translate(-1503.095 -606.572)">
    <g id="Group_9" data-name="Group 9" transform="translate(1503.095 608.073)">
      <g id="Group_8" data-name="Group 8" transform="translate(10.75)">
        <g id="Group_7" data-name="Group 7">
          <g id="Group_6" data-name="Group 6">
            <path id="Path_12" data-name="Path 12" class="cls-1" d="M1167.591,570.651v-21.5a3.5,3.5,0,0,1,3.536-3.536h3.536a39.422,39.422,0,0,0,38.756-32.25l.566-35.927a14.548,14.548,0,0,0-13.155-14.286,14.77,14.77,0,0,0-10.891,3.819,14.02,14.02,0,0,0-4.526,10.467v25.177a14.4,14.4,0,0,1-14.427,14.428h-3.536V456.079a25.279,25.279,0,0,0-24.47-25.177,24.332,24.332,0,0,0-17.822,7.214,26.932,26.932,0,0,0-7.921,17.964v57.427H1113.7a14.4,14.4,0,0,1-14.427-14.428V473.9A14.286,14.286,0,0,0,1084,459.615a14.781,14.781,0,0,0-13.3,14.286l.566,35.927a39.535,39.535,0,0,0,38.756,32.25h3.536a3.5,3.5,0,0,1,3.536,3.536v25.177h50.5Z" transform="translate(-1070.7 -430.896)"/>
          </g>
        </g>
      </g>
      <line id="Line_7" data-name="Line 7" class="cls-1" x2="9.194" transform="translate(0 45.693)"/>
      <line id="Line_8" data-name="Line 8" class="cls-1" x2="9.194" transform="translate(155.45 62.383)"/>
      <line id="Line_9" data-name="Line 9" class="cls-1" x2="9.194" transform="translate(154.177 82.752)"/>
      <line id="Line_10" data-name="Line 10" class="cls-1" x2="9.194" transform="translate(107.216 36.499)"/>
      <line id="Line_11" data-name="Line 11" class="cls-1" x2="9.194" transform="translate(47.526 21.647)"/>
      <line id="Line_12" data-name="Line 12" class="cls-1" x2="9.194" transform="translate(47.385 45.693)"/>
      <line id="Line_13" data-name="Line 13" class="cls-1" x2="9.194" transform="translate(101.559 7.785)"/>
      <line id="Line_14" data-name="Line 14" class="cls-1" x2="9.194" transform="translate(0 73.982)"/>
    </g>
    <g id="Group_10" data-name="Group 10" transform="translate(1533.365 747.827)">
      <line id="Line_15" data-name="Line 15" class="cls-2" x2="50.213" transform="translate(25.46)"/>
      <line id="Line_16" data-name="Line 16" class="cls-2" x2="91.516" transform="translate(4.809 35.362)"/>
      <path id="Path_13" data-name="Path 13" class="cls-3" d="M1178.7,567.415H1093.27a8.814,8.814,0,0,1-8.77-8.77V537.57a8.814,8.814,0,0,1,8.77-8.77H1178.7a8.814,8.814,0,0,1,8.77,8.77v21.076A8.814,8.814,0,0,1,1178.7,567.415Z" transform="translate(-1084.5 -528.659)"/>
      <path id="Path_14" data-name="Path 14" class="cls-4" d="M1160.546,603.485h-55.305a3.877,3.877,0,0,1-3.961-2.97l-8.062-40.171c-.424-2.263,1.415-4.243,3.961-4.243h71.431a3.774,3.774,0,0,1,3.96,4.243l-8.062,40.171A4.116,4.116,0,0,1,1160.546,603.485Z" transform="translate(-1080.912 -517.344)"/>
    </g>
  </g>
</svg>
